<svg width="2239" height="281" viewBox="0 0 2239 281" fill="none" xmlns="http://www.w3.org/2000/svg">
<path d="M0 140.939V127.328C14.1704 127.328 24.0557 124.767 29.656 119.645C35.3411 114.522 38.1836 105.96 38.1836 93.9594V58.8344C38.1836 48.7359 39.2867 39.9913 41.4929 32.6004C43.7839 25.2095 47.475 19.0992 52.5661 14.2695C57.6573 9.43985 64.4455 5.85418 72.9308 3.51252C81.416 1.17084 91.8953 0 104.369 0V21.5141C94.5257 21.5141 86.7617 22.8313 81.0766 25.4656C75.4763 28.1 71.4883 32.1979 69.1124 37.7594C66.8214 43.2477 65.6759 50.2727 65.6759 58.8344V102.741C65.6759 108.448 64.7849 113.644 63.003 118.327C61.306 123.011 58.124 127.035 53.4571 130.402C48.7902 133.768 42.1293 136.365 33.4743 138.195C24.9042 140.024 13.7461 140.939 0 140.939ZM104.369 281C91.8953 281 81.416 279.829 72.9308 277.487C64.4455 275.146 57.6573 271.56 52.5661 266.73C47.475 261.901 43.7839 255.791 41.4929 248.4C39.2867 241.009 38.1836 232.264 38.1836 222.166V187.041C38.1836 175.04 35.3411 166.478 29.656 161.355C24.0557 156.233 14.1704 153.672 0 153.672V140.061C13.7461 140.061 24.9042 140.976 33.4743 142.805C42.1293 144.635 48.7902 147.232 53.4571 150.598C58.124 153.965 61.306 157.989 63.003 162.673C64.7849 167.356 65.6759 172.552 65.6759 178.259V222.166C65.6759 230.727 66.8214 237.752 69.1124 243.241C71.4883 248.729 75.4763 252.79 81.0766 255.425C86.7617 258.132 94.5257 259.486 104.369 259.486V281ZM0 153.672V127.328H30.0378V153.672H0Z" fill="#F9E8D5"/>
<path d="M313.106 140.061V153.672C298.936 153.672 289.008 156.233 283.323 161.355C277.722 166.478 274.922 175.04 274.922 187.041V222.166C274.922 232.264 273.777 241.009 271.486 248.4C269.28 255.791 265.631 261.901 260.54 266.73C255.449 271.56 248.66 275.146 240.175 277.487C231.69 279.829 221.211 281 208.737 281V259.486C218.58 259.486 226.302 258.132 231.902 255.425C237.587 252.79 241.575 248.729 243.866 243.241C246.242 237.752 247.43 230.727 247.43 222.166V178.259C247.43 172.552 248.279 167.356 249.976 162.673C251.758 157.989 254.982 153.965 259.649 150.598C264.316 147.232 270.934 144.635 279.504 142.805C288.159 140.976 299.36 140.061 313.106 140.061ZM208.737 0C221.211 0 231.69 1.17084 240.175 3.51252C248.66 5.85418 255.449 9.43985 260.54 14.2695C265.631 19.0992 269.28 25.2095 271.486 32.6004C273.777 39.9913 274.922 48.7359 274.922 58.8344V93.9594C274.922 105.96 277.722 114.522 283.323 119.645C289.008 124.767 298.936 127.328 313.106 127.328V140.939C299.36 140.939 288.159 140.024 279.504 138.195C270.934 136.365 264.316 133.768 259.649 130.402C254.982 127.035 251.758 123.011 249.976 118.327C248.279 113.644 247.43 108.448 247.43 102.741V58.8344C247.43 50.2727 246.242 43.2477 243.866 37.7594C241.575 32.1979 237.587 28.1 231.902 25.4656C226.302 22.8313 218.58 21.5141 208.737 21.5141V0ZM313.106 127.328V153.672H283.068V127.328H313.106Z" fill="#F9E9D5"/>
<path d="M208.737 0H104.369L104.368 20.7557H135.679C137.766 20.7557 141.941 22.4853 141.941 27.6742V100.319L156.553 110.697L171.164 100.319V27.6742C171.164 22.4853 175.339 20.7557 177.426 20.7557H208.737L208.737 0Z" fill="#FF9575"/>
<path d="M104.368 260.564L104.369 281H208.737L208.737 260.564C208.737 260.564 179.485 260.567 177.399 260.564C175.312 260.561 171.184 260.689 171.196 255.58L171.226 241.956L171.135 189.036L156.53 178.818L142.015 189.036V241.913L141.985 255.537C141.974 260.646 137.756 260.567 135.669 260.564C133.583 260.561 104.368 260.564 104.368 260.564Z" fill="#FF9575"/>
<path d="M454.579 238.424H359.133C352.543 238.424 346.862 236.154 342.09 231.612C337.544 226.844 335.272 221.167 335.272 214.582V143.055C335.272 136.469 337.544 130.906 342.09 126.365C346.862 121.596 352.543 119.212 359.133 119.212H430.717C437.308 119.212 442.875 121.596 447.42 126.365C452.193 130.906 454.579 136.469 454.579 143.055V166.897L430.717 190.739H362.542L382.995 170.303H430.717V139.648H359.133V217.988H454.579V238.424Z" fill="#F9E9D5"/>
<path d="M587.507 166.897H563.646V139.648H515.923V238.424H492.062V119.212H515.923V136.242L532.967 119.212H563.646C570.236 119.212 575.804 121.596 580.349 126.365C585.121 130.906 587.507 136.469 587.507 143.055V166.897Z" fill="#F9E9D5"/>
<path d="M648.745 98.7757H624.884V71.5273H648.745V98.7757ZM648.745 238.424H624.884V136.242L648.745 112.4V238.424Z" fill="#F9E9D5"/>
<path d="M819.17 214.582C819.17 221.167 816.784 226.844 812.012 231.612C807.467 236.154 801.899 238.424 795.309 238.424H723.725V218.328L699.863 241.83V64.7151L723.725 40.8727V136.242L740.768 119.212H795.309C801.899 119.212 807.467 121.596 812.012 126.365C816.784 130.906 819.17 136.469 819.17 143.055V214.582ZM795.309 217.988V139.648H723.725V217.988H795.309Z" fill="#F9E9D5"/>
<path d="M986.199 238.424H890.754C884.164 238.424 878.482 236.154 873.71 231.612C869.165 226.844 866.893 221.167 866.893 214.582V143.055C866.893 136.469 869.165 130.906 873.71 126.365C878.482 121.596 884.164 119.212 890.754 119.212H962.338C968.928 119.212 974.496 121.596 979.041 126.365C983.813 130.906 986.199 136.469 986.199 143.055V166.897L962.338 190.739H894.163L914.615 170.303H962.338V139.648H890.754V217.988H986.199V238.424Z" fill="#F9E9D5"/>
<path d="M1119.13 166.897H1095.27V139.648H1047.54V238.424H1023.68V119.212H1047.54V136.242L1064.59 119.212H1095.27C1101.86 119.212 1107.42 121.596 1111.97 126.365C1116.74 130.906 1119.13 136.469 1119.13 143.055V166.897Z" fill="#F9E9D5"/>
<path d="M1234.91 238.424H1187.18C1180.59 238.424 1174.91 236.154 1170.14 231.612C1165.59 226.844 1163.32 221.167 1163.32 214.582V139.648H1129.23L1149.69 119.212H1163.32V95.3697L1187.18 71.5273V119.212H1234.91V139.648H1187.18V217.988H1234.91V238.424Z" fill="#F9E9D5"/>
<path d="M1388.33 214.582C1388.33 221.167 1385.94 226.844 1381.17 231.612C1376.62 236.154 1371.06 238.424 1364.47 238.424H1292.88C1286.29 238.424 1280.61 236.154 1275.84 231.612C1271.29 226.844 1269.02 221.167 1269.02 214.582V143.055C1269.02 136.469 1271.29 130.906 1275.84 126.365C1280.61 121.596 1286.29 119.212 1292.88 119.212H1364.47C1371.06 119.212 1376.62 121.596 1381.17 126.365C1385.94 130.906 1388.33 136.469 1388.33 143.055V214.582ZM1364.47 217.988V139.648H1292.88V217.988H1364.47Z" fill="#F9E9D5"/>
<path d="M1470.22 238.424H1439.54V211.176H1470.22V238.424Z" fill="#FF9575"/>
<path d="M1623.61 119.212L1602.82 139.648H1545.21V217.988H1616.79V238.424H1545.21C1538.62 238.424 1532.94 236.154 1528.17 231.612C1523.62 226.844 1521.35 221.167 1521.35 214.582V143.055C1521.35 136.469 1523.62 130.906 1528.17 126.365C1532.94 121.596 1538.62 119.212 1545.21 119.212H1623.61Z" fill="#F9E9D5"/>
<path d="M1766.82 214.582C1766.82 221.167 1764.43 226.844 1759.66 231.612C1755.12 236.154 1749.55 238.424 1742.96 238.424H1671.37C1664.78 238.424 1659.1 236.154 1654.33 231.612C1649.79 226.844 1647.51 221.167 1647.51 214.582V143.055C1647.51 136.469 1649.79 130.906 1654.33 126.365C1659.1 121.596 1664.78 119.212 1671.37 119.212H1742.96C1749.55 119.212 1755.12 121.596 1759.66 126.365C1764.43 130.906 1766.82 136.469 1766.82 143.055V214.582ZM1742.96 217.988V139.648H1671.37V217.988H1742.96Z" fill="#F9E9D5"/>
<path d="M1933.93 238.424H1910.07V221.394L1893.02 238.424H1838.48C1831.89 238.424 1826.21 236.154 1821.44 231.612C1816.89 226.844 1814.62 221.167 1814.62 214.582V143.055C1814.62 136.469 1816.89 130.906 1821.44 126.365C1826.21 121.596 1831.89 119.212 1838.48 119.212H1910.07V64.7151L1933.93 40.8727V238.424ZM1910.07 217.988V122.618L1893.02 139.648H1838.48V217.988H1910.07Z" fill="#F9E9D5"/>
<path d="M2104.37 238.424H2008.92C2002.33 238.424 1996.65 236.154 1991.88 231.612C1987.33 226.844 1985.06 221.167 1985.06 214.582V143.055C1985.06 136.469 1987.33 130.906 1991.88 126.365C1996.65 121.596 2002.33 119.212 2008.92 119.212H2080.51C2087.1 119.212 2092.66 121.596 2097.21 126.365C2101.98 130.906 2104.37 136.469 2104.37 143.055V166.897L2080.51 190.739H2012.33L2032.78 170.303H2080.51V139.648H2008.92V217.988H2104.37V238.424Z" fill="#F9E9D5"/>
<path d="M2239 119.212L2218.21 139.648H2160.6V166.897H2208.32C2214.91 166.897 2220.48 169.281 2225.02 174.05C2229.8 178.591 2232.18 184.154 2232.18 190.739V214.582C2232.18 221.167 2229.8 226.844 2225.02 231.612C2220.48 236.154 2214.91 238.424 2208.32 238.424H2136.74V217.988H2208.32V187.333H2160.6C2154.01 187.333 2148.33 185.063 2143.55 180.521C2139.01 175.753 2136.74 170.076 2136.74 163.491V143.055C2136.74 136.469 2139.01 130.906 2143.55 126.365C2148.33 121.596 2154.01 119.212 2160.6 119.212H2239Z" fill="#F9E9D5"/>
</svg>
