<svg viewBox="0 0 414 261" fill="none" xmlns="http://www.w3.org/2000/svg">
    <path d="M205.26 224V213.53H209.175C210.175 213.53 210.935 213.81 211.455 214.37C211.985 214.93 212.25 215.7 212.25 216.68C212.25 217.66 211.985 218.43 211.455 218.99C210.935 219.55 210.175 219.83 209.175 219.83H206.94V224H205.26ZM206.94 218.435H208.92C209.96 218.435 210.48 217.955 210.48 216.995V216.35C210.48 215.4 209.96 214.925 208.92 214.925H206.94V218.435ZM214.134 222.68H216.189V217.58H214.134V216.26H217.824V218.315H217.914C217.984 218.045 218.084 217.785 218.214 217.535C218.344 217.285 218.509 217.07 218.709 216.89C218.909 216.7 219.154 216.55 219.444 216.44C219.734 216.32 220.074 216.26 220.464 216.26H221.394V217.82H219.864C219.264 217.82 218.774 218 218.394 218.36C218.014 218.71 217.824 219.185 217.824 219.785V222.68H220.629V224H214.134V222.68ZM226.488 224.18C225.918 224.18 225.403 224.085 224.943 223.895C224.493 223.705 224.108 223.435 223.788 223.085C223.478 222.735 223.238 222.31 223.068 221.81C222.898 221.31 222.813 220.75 222.813 220.13C222.813 219.51 222.898 218.95 223.068 218.45C223.238 217.95 223.478 217.525 223.788 217.175C224.108 216.825 224.493 216.555 224.943 216.365C225.403 216.175 225.918 216.08 226.488 216.08C227.058 216.08 227.568 216.175 228.018 216.365C228.478 216.555 228.863 216.825 229.173 217.175C229.493 217.525 229.738 217.95 229.908 218.45C230.078 218.95 230.163 219.51 230.163 220.13C230.163 220.75 230.078 221.31 229.908 221.81C229.738 222.31 229.493 222.735 229.173 223.085C228.863 223.435 228.478 223.705 228.018 223.895C227.568 224.085 227.058 224.18 226.488 224.18ZM226.488 222.89C227.088 222.89 227.563 222.71 227.913 222.35C228.273 221.98 228.453 221.435 228.453 220.715V219.545C228.453 218.825 228.273 218.285 227.913 217.925C227.563 217.555 227.088 217.37 226.488 217.37C225.888 217.37 225.408 217.555 225.048 217.925C224.698 218.285 224.523 218.825 224.523 219.545V220.715C224.523 221.435 224.698 221.98 225.048 222.35C225.408 222.71 225.888 222.89 226.488 222.89ZM235.767 224.18C235.187 224.18 234.667 224.085 234.207 223.895C233.757 223.705 233.372 223.435 233.052 223.085C232.742 222.735 232.502 222.31 232.332 221.81C232.172 221.31 232.092 220.75 232.092 220.13C232.092 219.51 232.172 218.95 232.332 218.45C232.502 217.95 232.742 217.525 233.052 217.175C233.372 216.825 233.757 216.555 234.207 216.365C234.667 216.175 235.182 216.08 235.752 216.08C236.552 216.08 237.192 216.25 237.672 216.59C238.162 216.93 238.527 217.37 238.767 217.91L237.492 218.6C237.352 218.24 237.137 217.955 236.847 217.745C236.567 217.535 236.202 217.43 235.752 217.43C235.132 217.43 234.652 217.62 234.312 218C233.972 218.37 233.802 218.865 233.802 219.485V220.775C233.802 221.385 233.972 221.88 234.312 222.26C234.652 222.64 235.142 222.83 235.782 222.83C236.262 222.83 236.652 222.72 236.952 222.5C237.262 222.28 237.507 221.98 237.687 221.6L238.887 222.335C238.637 222.875 238.257 223.32 237.747 223.67C237.237 224.01 236.577 224.18 235.767 224.18ZM244.642 224.18C244.052 224.18 243.522 224.085 243.052 223.895C242.582 223.705 242.187 223.435 241.867 223.085C241.547 222.735 241.302 222.315 241.132 221.825C240.962 221.325 240.877 220.765 240.877 220.145C240.877 219.525 240.962 218.965 241.132 218.465C241.312 217.965 241.557 217.54 241.867 217.19C242.187 216.83 242.572 216.555 243.022 216.365C243.472 216.175 243.972 216.08 244.522 216.08C245.062 216.08 245.552 216.175 245.992 216.365C246.432 216.545 246.807 216.805 247.117 217.145C247.427 217.485 247.662 217.89 247.822 218.36C247.992 218.83 248.077 219.35 248.077 219.92V220.535H242.527V220.79C242.527 221.4 242.717 221.9 243.097 222.29C243.477 222.67 244.002 222.86 244.672 222.86C245.172 222.86 245.597 222.755 245.947 222.545C246.307 222.325 246.597 222.035 246.817 221.675L247.837 222.575C247.577 223.025 247.177 223.405 246.637 223.715C246.107 224.025 245.442 224.18 244.642 224.18ZM244.522 217.325C244.232 217.325 243.962 217.375 243.712 217.475C243.472 217.575 243.262 217.72 243.082 217.91C242.912 218.09 242.777 218.305 242.677 218.555C242.577 218.805 242.527 219.08 242.527 219.38V219.485H246.412V219.335C246.412 218.725 246.237 218.24 245.887 217.88C245.547 217.51 245.092 217.325 244.522 217.325ZM253.486 224.18C252.646 224.18 251.921 224.045 251.311 223.775C250.711 223.505 250.226 223.145 249.856 222.695L250.861 221.795C251.201 222.165 251.581 222.45 252.001 222.65C252.431 222.84 252.936 222.935 253.516 222.935C254.046 222.935 254.471 222.845 254.791 222.665C255.121 222.485 255.286 222.205 255.286 221.825C255.286 221.665 255.256 221.53 255.196 221.42C255.136 221.31 255.051 221.22 254.941 221.15C254.831 221.08 254.701 221.025 254.551 220.985C254.411 220.945 254.261 220.915 254.101 220.895L252.871 220.7C252.571 220.66 252.266 220.595 251.956 220.505C251.646 220.415 251.366 220.29 251.116 220.13C250.876 219.96 250.676 219.745 250.516 219.485C250.366 219.225 250.291 218.895 250.291 218.495C250.291 217.705 250.591 217.105 251.191 216.695C251.801 216.285 252.601 216.08 253.591 216.08C254.311 216.08 254.931 216.19 255.451 216.41C255.981 216.62 256.421 216.915 256.771 217.295L255.856 218.255C255.656 218.025 255.371 217.815 255.001 217.625C254.631 217.425 254.141 217.325 253.531 217.325C252.441 217.325 251.896 217.67 251.896 218.36C251.896 218.69 252.011 218.92 252.241 219.05C252.481 219.17 252.761 219.25 253.081 219.29L254.311 219.485C254.621 219.535 254.926 219.6 255.226 219.68C255.536 219.76 255.811 219.885 256.051 220.055C256.301 220.215 256.501 220.425 256.651 220.685C256.811 220.945 256.891 221.275 256.891 221.675C256.891 222.455 256.586 223.07 255.976 223.52C255.376 223.96 254.546 224.18 253.486 224.18ZM262.48 224.18C261.64 224.18 260.915 224.045 260.305 223.775C259.705 223.505 259.22 223.145 258.85 222.695L259.855 221.795C260.195 222.165 260.575 222.45 260.995 222.65C261.425 222.84 261.93 222.935 262.51 222.935C263.04 222.935 263.465 222.845 263.785 222.665C264.115 222.485 264.28 222.205 264.28 221.825C264.28 221.665 264.25 221.53 264.19 221.42C264.13 221.31 264.045 221.22 263.935 221.15C263.825 221.08 263.695 221.025 263.545 220.985C263.405 220.945 263.255 220.915 263.095 220.895L261.865 220.7C261.565 220.66 261.26 220.595 260.95 220.505C260.64 220.415 260.36 220.29 260.11 220.13C259.87 219.96 259.67 219.745 259.51 219.485C259.36 219.225 259.285 218.895 259.285 218.495C259.285 217.705 259.585 217.105 260.185 216.695C260.795 216.285 261.595 216.08 262.585 216.08C263.305 216.08 263.925 216.19 264.445 216.41C264.975 216.62 265.415 216.915 265.765 217.295L264.85 218.255C264.65 218.025 264.365 217.815 263.995 217.625C263.625 217.425 263.135 217.325 262.525 217.325C261.435 217.325 260.89 217.67 260.89 218.36C260.89 218.69 261.005 218.92 261.235 219.05C261.475 219.17 261.755 219.25 262.075 219.29L263.305 219.485C263.615 219.535 263.92 219.6 264.22 219.68C264.53 219.76 264.805 219.885 265.045 220.055C265.295 220.215 265.495 220.425 265.645 220.685C265.805 220.945 265.885 221.275 265.885 221.675C265.885 222.455 265.58 223.07 264.97 223.52C264.37 223.96 263.54 224.18 262.48 224.18Z" fill="#444FF0"/>
    <rect x="185" y="211" width="15" height="15" fill="#444FF0"/>
    <path d="M334.74 224.18C333.34 224.18 332.3 223.71 331.62 222.77C330.95 221.82 330.615 220.485 330.615 218.765C330.615 217.045 330.95 215.715 331.62 214.775C332.3 213.825 333.34 213.35 334.74 213.35C335.28 213.35 335.755 213.425 336.165 213.575C336.585 213.715 336.945 213.915 337.245 214.175C337.545 214.435 337.79 214.75 337.98 215.12C338.18 215.49 338.335 215.905 338.445 216.365L336.345 216.875C336.285 216.625 336.215 216.395 336.135 216.185C336.055 215.975 335.95 215.795 335.82 215.645C335.7 215.495 335.545 215.38 335.355 215.3C335.175 215.21 334.955 215.165 334.695 215.165C334.085 215.165 333.65 215.405 333.39 215.885C333.14 216.355 333.015 217.01 333.015 217.85V219.68C333.015 220.52 333.14 221.18 333.39 221.66C333.65 222.13 334.085 222.365 334.695 222.365C335.215 222.365 335.59 222.205 335.82 221.885C336.06 221.565 336.235 221.155 336.345 220.655L338.445 221.165C338.335 221.625 338.18 222.04 337.98 222.41C337.79 222.78 337.545 223.1 337.245 223.37C336.945 223.63 336.585 223.83 336.165 223.97C335.755 224.11 335.28 224.18 334.74 224.18ZM343.494 224.18C342.894 224.18 342.354 224.09 341.874 223.91C341.394 223.72 340.984 223.45 340.644 223.1C340.314 222.75 340.059 222.325 339.879 221.825C339.699 221.325 339.609 220.76 339.609 220.13C339.609 219.5 339.699 218.935 339.879 218.435C340.059 217.935 340.314 217.51 340.644 217.16C340.984 216.81 341.394 216.545 341.874 216.365C342.354 216.175 342.894 216.08 343.494 216.08C344.094 216.08 344.634 216.175 345.114 216.365C345.594 216.545 345.999 216.81 346.329 217.16C346.669 217.51 346.929 217.935 347.109 218.435C347.289 218.935 347.379 219.5 347.379 220.13C347.379 220.76 347.289 221.325 347.109 221.825C346.929 222.325 346.669 222.75 346.329 223.1C345.999 223.45 345.594 223.72 345.114 223.91C344.634 224.09 344.094 224.18 343.494 224.18ZM343.494 222.53C343.994 222.53 344.384 222.375 344.664 222.065C344.944 221.755 345.084 221.315 345.084 220.745V219.515C345.084 218.945 344.944 218.505 344.664 218.195C344.384 217.885 343.994 217.73 343.494 217.73C342.994 217.73 342.604 217.885 342.324 218.195C342.044 218.505 341.904 218.945 341.904 219.515V220.745C341.904 221.315 342.044 221.755 342.324 222.065C342.604 222.375 342.994 222.53 343.494 222.53ZM353.883 222.59H353.778C353.578 223.06 353.298 223.445 352.938 223.745C352.588 224.035 352.103 224.18 351.483 224.18C351.053 224.18 350.658 224.1 350.298 223.94C349.948 223.78 349.643 223.535 349.383 223.205C349.133 222.875 348.933 222.455 348.783 221.945C348.643 221.435 348.573 220.83 348.573 220.13C348.573 219.43 348.643 218.825 348.783 218.315C348.933 217.805 349.133 217.385 349.383 217.055C349.643 216.725 349.948 216.48 350.298 216.32C350.658 216.16 351.053 216.08 351.483 216.08C351.793 216.08 352.068 216.12 352.308 216.2C352.548 216.28 352.758 216.39 352.938 216.53C353.128 216.67 353.288 216.84 353.418 217.04C353.558 217.23 353.678 217.44 353.778 217.67H353.883V212.9H356.103V224H353.883V222.59ZM352.443 222.455C352.833 222.455 353.168 222.36 353.448 222.17C353.738 221.98 353.883 221.68 353.883 221.27V218.99C353.883 218.58 353.738 218.28 353.448 218.09C353.168 217.9 352.833 217.805 352.443 217.805C351.943 217.805 351.558 217.96 351.288 218.27C351.018 218.57 350.883 218.99 350.883 219.53V220.73C350.883 221.27 351.018 221.695 351.288 222.005C351.558 222.305 351.943 222.455 352.443 222.455ZM361.962 215.27C361.462 215.27 361.112 215.17 360.912 214.97C360.722 214.76 360.627 214.51 360.627 214.22V213.785C360.627 213.485 360.722 213.235 360.912 213.035C361.112 212.835 361.462 212.735 361.962 212.735C362.462 212.735 362.807 212.835 362.997 213.035C363.197 213.235 363.297 213.485 363.297 213.785V214.22C363.297 214.51 363.197 214.76 362.997 214.97C362.807 215.17 362.462 215.27 361.962 215.27ZM358.392 222.275H360.852V217.985H358.392V216.26H363.072V222.275H365.352V224H358.392V222.275ZM366.952 224V216.26H369.172V217.67H369.262C369.352 217.45 369.462 217.245 369.592 217.055C369.722 216.865 369.877 216.7 370.057 216.56C370.247 216.41 370.462 216.295 370.702 216.215C370.952 216.125 371.232 216.08 371.542 216.08C371.912 216.08 372.252 216.145 372.562 216.275C372.872 216.395 373.137 216.58 373.357 216.83C373.577 217.08 373.747 217.385 373.867 217.745C373.997 218.105 374.062 218.52 374.062 218.99V224H371.842V219.29C371.842 218.29 371.407 217.79 370.537 217.79C370.367 217.79 370.197 217.815 370.027 217.865C369.867 217.905 369.722 217.975 369.592 218.075C369.462 218.165 369.357 218.28 369.277 218.42C369.207 218.56 369.172 218.725 369.172 218.915V224H366.952ZM383.716 224.78C383.716 225.6 383.371 226.205 382.681 226.595C381.991 226.985 380.906 227.18 379.426 227.18C378.686 227.18 378.076 227.135 377.596 227.045C377.116 226.965 376.731 226.845 376.441 226.685C376.161 226.525 375.961 226.335 375.841 226.115C375.731 225.895 375.676 225.655 375.676 225.395C375.676 224.955 375.806 224.62 376.066 224.39C376.326 224.17 376.691 224 377.161 223.88V223.79C376.831 223.69 376.566 223.55 376.366 223.37C376.176 223.18 376.081 222.915 376.081 222.575C376.081 222.195 376.206 221.915 376.456 221.735C376.716 221.555 377.056 221.415 377.476 221.315V221.225C377.016 221.005 376.656 220.695 376.396 220.295C376.146 219.895 376.021 219.41 376.021 218.84C376.021 218.39 376.101 217.995 376.261 217.655C376.421 217.305 376.646 217.015 376.936 216.785C377.236 216.555 377.591 216.38 378.001 216.26C378.411 216.14 378.871 216.08 379.381 216.08C379.871 216.08 380.326 216.135 380.746 216.245V215.825C380.746 215.525 380.851 215.275 381.061 215.075C381.271 214.875 381.561 214.775 381.931 214.775H383.296V216.395H381.436V216.53C381.856 216.75 382.181 217.055 382.411 217.445C382.651 217.825 382.771 218.29 382.771 218.84C382.771 219.29 382.691 219.685 382.531 220.025C382.371 220.365 382.141 220.655 381.841 220.895C381.541 221.125 381.181 221.3 380.761 221.42C380.351 221.54 379.891 221.6 379.381 221.6C379.151 221.6 378.931 221.59 378.721 221.57C378.511 221.54 378.311 221.5 378.121 221.45C378.011 221.51 377.916 221.585 377.836 221.675C377.766 221.765 377.731 221.88 377.731 222.02C377.731 222.14 377.761 222.235 377.821 222.305C377.881 222.375 377.961 222.43 378.061 222.47C378.171 222.5 378.296 222.52 378.436 222.53C378.576 222.54 378.721 222.545 378.871 222.545H380.641C381.191 222.545 381.661 222.6 382.051 222.71C382.441 222.82 382.761 222.975 383.011 223.175C383.261 223.375 383.441 223.61 383.551 223.88C383.661 224.15 383.716 224.45 383.716 224.78ZM381.616 224.945C381.616 224.745 381.536 224.585 381.376 224.465C381.216 224.355 380.911 224.3 380.461 224.3H377.806C377.606 224.47 377.506 224.68 377.506 224.93C377.506 225.17 377.606 225.365 377.806 225.515C378.016 225.675 378.366 225.755 378.856 225.755H380.161C380.671 225.755 381.041 225.685 381.271 225.545C381.501 225.405 381.616 225.205 381.616 224.945ZM379.381 220.19C379.831 220.19 380.156 220.08 380.356 219.86C380.566 219.64 380.671 219.36 380.671 219.02V218.66C380.671 218.32 380.566 218.04 380.356 217.82C380.156 217.6 379.831 217.49 379.381 217.49C378.941 217.49 378.621 217.6 378.421 217.82C378.221 218.04 378.121 218.32 378.121 218.66V219.02C378.121 219.36 378.221 219.64 378.421 219.86C378.621 220.08 378.941 220.19 379.381 220.19Z" fill="white"/>
    <rect x="311" y="211" width="15" height="15" fill="white"/>
    <path d="M45.96 246.53H49.335C50.745 246.53 51.79 246.98 52.47 247.88C53.15 248.78 53.49 250.075 53.49 251.765C53.49 253.455 53.15 254.75 52.47 255.65C51.79 256.55 50.745 257 49.335 257H45.96V246.53ZM49.185 255.23C49.855 255.23 50.345 255.015 50.655 254.585C50.965 254.155 51.12 253.53 51.12 252.71V250.805C51.12 249.995 50.965 249.375 50.655 248.945C50.345 248.515 49.855 248.3 49.185 248.3H48.18V255.23H49.185ZM58.7041 257.18C57.4041 257.18 56.4191 256.82 55.7491 256.1C55.0791 255.38 54.7441 254.4 54.7441 253.16C54.7441 252.53 54.8291 251.965 54.9991 251.465C55.1791 250.955 55.4291 250.525 55.7491 250.175C56.0791 249.815 56.4741 249.545 56.9341 249.365C57.4041 249.175 57.9291 249.08 58.5091 249.08C59.0891 249.08 59.6091 249.175 60.0691 249.365C60.5291 249.545 60.9191 249.805 61.2391 250.145C61.5591 250.485 61.8041 250.9 61.9741 251.39C62.1541 251.87 62.2441 252.41 62.2441 253.01V253.67H56.9491V253.805C56.9491 254.305 57.1041 254.71 57.4141 255.02C57.7241 255.32 58.1791 255.47 58.7791 255.47C59.2391 255.47 59.6341 255.385 59.9641 255.215C60.2941 255.035 60.5791 254.8 60.8191 254.51L62.0191 255.815C61.7191 256.185 61.2991 256.505 60.7591 256.775C60.2191 257.045 59.5341 257.18 58.7041 257.18ZM58.5241 250.67C58.0441 250.67 57.6591 250.82 57.3691 251.12C57.0891 251.41 56.9491 251.805 56.9491 252.305V252.425H60.0691V252.305C60.0691 251.795 59.9291 251.395 59.6491 251.105C59.3791 250.815 59.0041 250.67 58.5241 250.67ZM67.3983 257.18C66.5383 257.18 65.7883 257.05 65.1483 256.79C64.5183 256.53 64.0433 256.175 63.7233 255.725L64.9683 254.57C65.2683 254.9 65.6183 255.16 66.0183 255.35C66.4283 255.53 66.8933 255.62 67.4133 255.62C67.8533 255.62 68.1983 255.555 68.4483 255.425C68.6983 255.285 68.8233 255.075 68.8233 254.795C68.8233 254.575 68.7383 254.425 68.5683 254.345C68.3983 254.255 68.1633 254.185 67.8633 254.135L66.6183 253.94C66.2683 253.89 65.9433 253.815 65.6433 253.715C65.3433 253.605 65.0833 253.46 64.8633 253.28C64.6433 253.1 64.4683 252.88 64.3383 252.62C64.2083 252.36 64.1433 252.045 64.1433 251.675C64.1433 250.865 64.4533 250.23 65.0733 249.77C65.6933 249.31 66.5633 249.08 67.6833 249.08C68.4433 249.08 69.0883 249.185 69.6183 249.395C70.1583 249.595 70.5883 249.885 70.9083 250.265L69.7983 251.525C69.5683 251.275 69.2733 251.065 68.9133 250.895C68.5533 250.725 68.1183 250.64 67.6083 250.64C66.7483 250.64 66.3183 250.9 66.3183 251.42C66.3183 251.65 66.4033 251.81 66.5733 251.9C66.7433 251.98 66.9783 252.045 67.2783 252.095L68.5083 252.29C68.8583 252.34 69.1833 252.42 69.4833 252.53C69.7833 252.63 70.0433 252.77 70.2633 252.95C70.4933 253.13 70.6733 253.35 70.8033 253.61C70.9333 253.87 70.9983 254.185 70.9983 254.555C70.9983 255.365 70.6833 256.005 70.0533 256.475C69.4333 256.945 68.5483 257.18 67.3983 257.18ZM76.9624 248.27C76.4624 248.27 76.1124 248.17 75.9124 247.97C75.7224 247.76 75.6274 247.51 75.6274 247.22V246.785C75.6274 246.485 75.7224 246.235 75.9124 246.035C76.1124 245.835 76.4624 245.735 76.9624 245.735C77.4624 245.735 77.8074 245.835 77.9974 246.035C78.1974 246.235 78.2974 246.485 78.2974 246.785V247.22C78.2974 247.51 78.1974 247.76 77.9974 247.97C77.8074 248.17 77.4624 248.27 76.9624 248.27ZM73.3924 255.275H75.8524V250.985H73.3924V249.26H78.0724V255.275H80.3524V257H73.3924V255.275ZM89.7216 257.78C89.7216 258.6 89.3766 259.205 88.6866 259.595C87.9966 259.985 86.9116 260.18 85.4316 260.18C84.6916 260.18 84.0816 260.135 83.6016 260.045C83.1216 259.965 82.7366 259.845 82.4466 259.685C82.1666 259.525 81.9666 259.335 81.8466 259.115C81.7366 258.895 81.6816 258.655 81.6816 258.395C81.6816 257.955 81.8116 257.62 82.0716 257.39C82.3316 257.17 82.6966 257 83.1666 256.88V256.79C82.8366 256.69 82.5716 256.55 82.3716 256.37C82.1816 256.18 82.0866 255.915 82.0866 255.575C82.0866 255.195 82.2116 254.915 82.4616 254.735C82.7216 254.555 83.0616 254.415 83.4816 254.315V254.225C83.0216 254.005 82.6616 253.695 82.4016 253.295C82.1516 252.895 82.0266 252.41 82.0266 251.84C82.0266 251.39 82.1066 250.995 82.2666 250.655C82.4266 250.305 82.6516 250.015 82.9416 249.785C83.2416 249.555 83.5966 249.38 84.0066 249.26C84.4166 249.14 84.8766 249.08 85.3866 249.08C85.8766 249.08 86.3316 249.135 86.7516 249.245V248.825C86.7516 248.525 86.8566 248.275 87.0666 248.075C87.2766 247.875 87.5666 247.775 87.9366 247.775H89.3016V249.395H87.4416V249.53C87.8616 249.75 88.1866 250.055 88.4166 250.445C88.6566 250.825 88.7766 251.29 88.7766 251.84C88.7766 252.29 88.6966 252.685 88.5366 253.025C88.3766 253.365 88.1466 253.655 87.8466 253.895C87.5466 254.125 87.1866 254.3 86.7666 254.42C86.3566 254.54 85.8966 254.6 85.3866 254.6C85.1566 254.6 84.9366 254.59 84.7266 254.57C84.5166 254.54 84.3166 254.5 84.1266 254.45C84.0166 254.51 83.9216 254.585 83.8416 254.675C83.7716 254.765 83.7366 254.88 83.7366 255.02C83.7366 255.14 83.7666 255.235 83.8266 255.305C83.8866 255.375 83.9666 255.43 84.0666 255.47C84.1766 255.5 84.3016 255.52 84.4416 255.53C84.5816 255.54 84.7266 255.545 84.8766 255.545H86.6466C87.1966 255.545 87.6666 255.6 88.0566 255.71C88.4466 255.82 88.7666 255.975 89.0166 256.175C89.2666 256.375 89.4466 256.61 89.5566 256.88C89.6666 257.15 89.7216 257.45 89.7216 257.78ZM87.6216 257.945C87.6216 257.745 87.5416 257.585 87.3816 257.465C87.2216 257.355 86.9166 257.3 86.4666 257.3H83.8116C83.6116 257.47 83.5116 257.68 83.5116 257.93C83.5116 258.17 83.6116 258.365 83.8116 258.515C84.0216 258.675 84.3716 258.755 84.8616 258.755H86.1666C86.6766 258.755 87.0466 258.685 87.2766 258.545C87.5066 258.405 87.6216 258.205 87.6216 257.945ZM85.3866 253.19C85.8366 253.19 86.1616 253.08 86.3616 252.86C86.5716 252.64 86.6766 252.36 86.6766 252.02V251.66C86.6766 251.32 86.5716 251.04 86.3616 250.82C86.1616 250.6 85.8366 250.49 85.3866 250.49C84.9466 250.49 84.6266 250.6 84.4266 250.82C84.2266 251.04 84.1266 251.32 84.1266 251.66V252.02C84.1266 252.36 84.2266 252.64 84.4266 252.86C84.6266 253.08 84.9466 253.19 85.3866 253.19ZM90.9457 257V249.26H93.1657V250.67H93.2557C93.3457 250.45 93.4557 250.245 93.5857 250.055C93.7157 249.865 93.8707 249.7 94.0507 249.56C94.2407 249.41 94.4557 249.295 94.6957 249.215C94.9457 249.125 95.2257 249.08 95.5357 249.08C95.9057 249.08 96.2457 249.145 96.5557 249.275C96.8657 249.395 97.1307 249.58 97.3507 249.83C97.5707 250.08 97.7407 250.385 97.8607 250.745C97.9907 251.105 98.0557 251.52 98.0557 251.99V257H95.8357V252.29C95.8357 251.29 95.4007 250.79 94.5307 250.79C94.3607 250.79 94.1907 250.815 94.0207 250.865C93.8607 250.905 93.7157 250.975 93.5857 251.075C93.4557 251.165 93.3507 251.28 93.2707 251.42C93.2007 251.56 93.1657 251.725 93.1657 251.915V257H90.9457Z" fill="#FC9938"/>
    <rect x="26" y="244" width="15" height="15" fill="#FC9938"/>
    <path d="M209.625 248.375V257H207.375V248.375H204.36V246.53H212.64V248.375H209.625ZM217.704 257.18C216.404 257.18 215.419 256.82 214.749 256.1C214.079 255.38 213.744 254.4 213.744 253.16C213.744 252.53 213.829 251.965 213.999 251.465C214.179 250.955 214.429 250.525 214.749 250.175C215.079 249.815 215.474 249.545 215.934 249.365C216.404 249.175 216.929 249.08 217.509 249.08C218.089 249.08 218.609 249.175 219.069 249.365C219.529 249.545 219.919 249.805 220.239 250.145C220.559 250.485 220.804 250.9 220.974 251.39C221.154 251.87 221.244 252.41 221.244 253.01V253.67H215.949V253.805C215.949 254.305 216.104 254.71 216.414 255.02C216.724 255.32 217.179 255.47 217.779 255.47C218.239 255.47 218.634 255.385 218.964 255.215C219.294 255.035 219.579 254.8 219.819 254.51L221.019 255.815C220.719 256.185 220.299 256.505 219.759 256.775C219.219 257.045 218.534 257.18 217.704 257.18ZM217.524 250.67C217.044 250.67 216.659 250.82 216.369 251.12C216.089 251.41 215.949 251.805 215.949 252.305V252.425H219.069V252.305C219.069 251.795 218.929 251.395 218.649 251.105C218.379 250.815 218.004 250.67 217.524 250.67ZM226.803 257.18C226.193 257.18 225.643 257.09 225.153 256.91C224.673 256.72 224.263 256.45 223.923 256.1C223.593 255.75 223.338 255.325 223.158 254.825C222.978 254.325 222.888 253.76 222.888 253.13C222.888 252.5 222.978 251.935 223.158 251.435C223.338 250.935 223.593 250.51 223.923 250.16C224.263 249.81 224.673 249.545 225.153 249.365C225.643 249.175 226.188 249.08 226.788 249.08C227.638 249.08 228.318 249.255 228.828 249.605C229.348 249.945 229.743 250.4 230.013 250.97L228.303 251.9C228.163 251.6 227.978 251.35 227.748 251.15C227.528 250.95 227.208 250.85 226.788 250.85C226.278 250.85 225.883 251 225.603 251.3C225.333 251.59 225.198 251.99 225.198 252.5V253.76C225.198 254.27 225.333 254.675 225.603 254.975C225.883 255.265 226.288 255.41 226.818 255.41C227.248 255.41 227.583 255.31 227.823 255.11C228.073 254.91 228.283 254.65 228.453 254.33L230.133 255.29C229.853 255.86 229.443 256.32 228.903 256.67C228.373 257.01 227.673 257.18 226.803 257.18ZM231.957 245.9H234.177V250.67H234.267C234.357 250.45 234.467 250.245 234.597 250.055C234.727 249.865 234.882 249.7 235.062 249.56C235.252 249.41 235.467 249.295 235.707 249.215C235.957 249.125 236.237 249.08 236.547 249.08C236.917 249.08 237.257 249.145 237.567 249.275C237.877 249.395 238.142 249.58 238.362 249.83C238.582 250.08 238.752 250.385 238.872 250.745C239.002 251.105 239.067 251.52 239.067 251.99V257H236.847V252.29C236.847 251.29 236.412 250.79 235.542 250.79C235.372 250.79 235.202 250.815 235.032 250.865C234.872 250.905 234.727 250.975 234.597 251.075C234.467 251.165 234.362 251.28 234.282 251.42C234.212 251.56 234.177 251.725 234.177 251.915V257H231.957V245.9ZM240.952 257V249.26H243.172V250.67H243.262C243.352 250.45 243.462 250.245 243.592 250.055C243.722 249.865 243.877 249.7 244.057 249.56C244.247 249.41 244.462 249.295 244.702 249.215C244.952 249.125 245.232 249.08 245.542 249.08C245.912 249.08 246.252 249.145 246.562 249.275C246.872 249.395 247.137 249.58 247.357 249.83C247.577 250.08 247.747 250.385 247.867 250.745C247.997 251.105 248.062 251.52 248.062 251.99V257H245.842V252.29C245.842 251.29 245.407 250.79 244.537 250.79C244.367 250.79 244.197 250.815 244.027 250.865C243.867 250.905 243.722 250.975 243.592 251.075C243.462 251.165 243.357 251.28 243.277 251.42C243.207 251.56 243.172 251.725 243.172 251.915V257H240.952ZM253.951 248.27C253.451 248.27 253.101 248.17 252.901 247.97C252.711 247.76 252.616 247.51 252.616 247.22V246.785C252.616 246.485 252.711 246.235 252.901 246.035C253.101 245.835 253.451 245.735 253.951 245.735C254.451 245.735 254.796 245.835 254.986 246.035C255.186 246.235 255.286 246.485 255.286 246.785V247.22C255.286 247.51 255.186 247.76 254.986 247.97C254.796 248.17 254.451 248.27 253.951 248.27ZM250.381 255.275H252.841V250.985H250.381V249.26H255.061V255.275H257.341V257H250.381V255.275ZM262.78 257.18C262.17 257.18 261.62 257.09 261.13 256.91C260.65 256.72 260.24 256.45 259.9 256.1C259.57 255.75 259.315 255.325 259.135 254.825C258.955 254.325 258.865 253.76 258.865 253.13C258.865 252.5 258.955 251.935 259.135 251.435C259.315 250.935 259.57 250.51 259.9 250.16C260.24 249.81 260.65 249.545 261.13 249.365C261.62 249.175 262.165 249.08 262.765 249.08C263.615 249.08 264.295 249.255 264.805 249.605C265.325 249.945 265.72 250.4 265.99 250.97L264.28 251.9C264.14 251.6 263.955 251.35 263.725 251.15C263.505 250.95 263.185 250.85 262.765 250.85C262.255 250.85 261.86 251 261.58 251.3C261.31 251.59 261.175 251.99 261.175 252.5V253.76C261.175 254.27 261.31 254.675 261.58 254.975C261.86 255.265 262.265 255.41 262.795 255.41C263.225 255.41 263.56 255.31 263.8 255.11C264.05 254.91 264.26 254.65 264.43 254.33L266.11 255.29C265.83 255.86 265.42 256.32 264.88 256.67C264.35 257.01 263.65 257.18 262.78 257.18ZM274.264 257C273.804 257 273.434 256.885 273.154 256.655C272.874 256.415 272.709 256.075 272.659 255.635H272.584C272.444 256.145 272.164 256.53 271.744 256.79C271.334 257.05 270.829 257.18 270.229 257.18C269.479 257.18 268.874 256.98 268.414 256.58C267.964 256.17 267.739 255.6 267.739 254.87C267.739 254.06 268.034 253.46 268.624 253.07C269.214 252.68 270.079 252.485 271.219 252.485H272.464V252.095C272.464 251.635 272.354 251.29 272.134 251.06C271.924 250.82 271.564 250.7 271.054 250.7C270.584 250.7 270.204 250.79 269.914 250.97C269.624 251.15 269.374 251.385 269.164 251.675L267.949 250.595C268.209 250.155 268.614 249.795 269.164 249.515C269.724 249.225 270.439 249.08 271.309 249.08C272.369 249.08 273.194 249.325 273.784 249.815C274.384 250.295 274.684 251.025 274.684 252.005V255.395H275.539V257H274.264ZM271.069 255.725C271.459 255.725 271.789 255.63 272.059 255.44C272.329 255.25 272.464 254.975 272.464 254.615V253.685H271.279C270.369 253.685 269.914 253.99 269.914 254.6V254.9C269.914 255.17 270.019 255.375 270.229 255.515C270.439 255.655 270.719 255.725 271.069 255.725ZM276.973 255.275H279.343V247.625H276.973V245.9H281.563V255.275H283.933V257H276.973V255.275ZM299.566 248.375V257H297.316V248.375H294.301V246.53H302.581V248.375H299.566ZM307.436 257.18C306.836 257.18 306.296 257.09 305.816 256.91C305.336 256.72 304.926 256.45 304.586 256.1C304.256 255.75 304.001 255.325 303.821 254.825C303.641 254.325 303.551 253.76 303.551 253.13C303.551 252.5 303.641 251.935 303.821 251.435C304.001 250.935 304.256 250.51 304.586 250.16C304.926 249.81 305.336 249.545 305.816 249.365C306.296 249.175 306.836 249.08 307.436 249.08C308.036 249.08 308.576 249.175 309.056 249.365C309.536 249.545 309.941 249.81 310.271 250.16C310.611 250.51 310.871 250.935 311.051 251.435C311.231 251.935 311.321 252.5 311.321 253.13C311.321 253.76 311.231 254.325 311.051 254.825C310.871 255.325 310.611 255.75 310.271 256.1C309.941 256.45 309.536 256.72 309.056 256.91C308.576 257.09 308.036 257.18 307.436 257.18ZM307.436 255.53C307.936 255.53 308.326 255.375 308.606 255.065C308.886 254.755 309.026 254.315 309.026 253.745V252.515C309.026 251.945 308.886 251.505 308.606 251.195C308.326 250.885 307.936 250.73 307.436 250.73C306.936 250.73 306.546 250.885 306.266 251.195C305.986 251.505 305.846 251.945 305.846 252.515V253.745C305.846 254.315 305.986 254.755 306.266 255.065C306.546 255.375 306.936 255.53 307.436 255.53ZM316.43 257.18C315.83 257.18 315.29 257.09 314.81 256.91C314.33 256.72 313.92 256.45 313.58 256.1C313.25 255.75 312.995 255.325 312.815 254.825C312.635 254.325 312.545 253.76 312.545 253.13C312.545 252.5 312.635 251.935 312.815 251.435C312.995 250.935 313.25 250.51 313.58 250.16C313.92 249.81 314.33 249.545 314.81 249.365C315.29 249.175 315.83 249.08 316.43 249.08C317.03 249.08 317.57 249.175 318.05 249.365C318.53 249.545 318.935 249.81 319.265 250.16C319.605 250.51 319.865 250.935 320.045 251.435C320.225 251.935 320.315 252.5 320.315 253.13C320.315 253.76 320.225 254.325 320.045 254.825C319.865 255.325 319.605 255.75 319.265 256.1C318.935 256.45 318.53 256.72 318.05 256.91C317.57 257.09 317.03 257.18 316.43 257.18ZM316.43 255.53C316.93 255.53 317.32 255.375 317.6 255.065C317.88 254.755 318.02 254.315 318.02 253.745V252.515C318.02 251.945 317.88 251.505 317.6 251.195C317.32 250.885 316.93 250.73 316.43 250.73C315.93 250.73 315.54 250.885 315.26 251.195C314.98 251.505 314.84 251.945 314.84 252.515V253.745C314.84 254.315 314.98 254.755 315.26 255.065C315.54 255.375 315.93 255.53 316.43 255.53ZM321.944 255.275H324.314V247.625H321.944V245.9H326.534V255.275H328.904V257H321.944V255.275ZM334.328 257.18C333.468 257.18 332.718 257.05 332.078 256.79C331.448 256.53 330.973 256.175 330.653 255.725L331.898 254.57C332.198 254.9 332.548 255.16 332.948 255.35C333.358 255.53 333.823 255.62 334.343 255.62C334.783 255.62 335.128 255.555 335.378 255.425C335.628 255.285 335.753 255.075 335.753 254.795C335.753 254.575 335.668 254.425 335.498 254.345C335.328 254.255 335.093 254.185 334.793 254.135L333.548 253.94C333.198 253.89 332.873 253.815 332.573 253.715C332.273 253.605 332.013 253.46 331.793 253.28C331.573 253.1 331.398 252.88 331.268 252.62C331.138 252.36 331.073 252.045 331.073 251.675C331.073 250.865 331.383 250.23 332.003 249.77C332.623 249.31 333.493 249.08 334.613 249.08C335.373 249.08 336.018 249.185 336.548 249.395C337.088 249.595 337.518 249.885 337.838 250.265L336.728 251.525C336.498 251.275 336.203 251.065 335.843 250.895C335.483 250.725 335.048 250.64 334.538 250.64C333.678 250.64 333.248 250.9 333.248 251.42C333.248 251.65 333.333 251.81 333.503 251.9C333.673 251.98 333.908 252.045 334.208 252.095L335.438 252.29C335.788 252.34 336.113 252.42 336.413 252.53C336.713 252.63 336.973 252.77 337.193 252.95C337.423 253.13 337.603 253.35 337.733 253.61C337.863 253.87 337.928 254.185 337.928 254.555C337.928 255.365 337.613 256.005 336.983 256.475C336.363 256.945 335.478 257.18 334.328 257.18Z" fill="#971F96"/>
    <rect x="185" y="244" width="15" height="15" fill="#971F96"/>
    <path d="M49.74 224.18C48.34 224.18 47.3 223.71 46.62 222.77C45.95 221.82 45.615 220.485 45.615 218.765C45.615 217.045 45.95 215.715 46.62 214.775C47.3 213.825 48.34 213.35 49.74 213.35C50.28 213.35 50.755 213.425 51.165 213.575C51.585 213.715 51.945 213.915 52.245 214.175C52.545 214.435 52.79 214.75 52.98 215.12C53.18 215.49 53.335 215.905 53.445 216.365L51.345 216.875C51.285 216.625 51.215 216.395 51.135 216.185C51.055 215.975 50.95 215.795 50.82 215.645C50.7 215.495 50.545 215.38 50.355 215.3C50.175 215.21 49.955 215.165 49.695 215.165C49.085 215.165 48.65 215.405 48.39 215.885C48.14 216.355 48.015 217.01 48.015 217.85V219.68C48.015 220.52 48.14 221.18 48.39 221.66C48.65 222.13 49.085 222.365 49.695 222.365C50.215 222.365 50.59 222.205 50.82 221.885C51.06 221.565 51.235 221.155 51.345 220.655L53.445 221.165C53.335 221.625 53.18 222.04 52.98 222.41C52.79 222.78 52.545 223.1 52.245 223.37C51.945 223.63 51.585 223.83 51.165 223.97C50.755 224.11 50.28 224.18 49.74 224.18ZM58.4941 224.18C57.8941 224.18 57.3541 224.09 56.8741 223.91C56.3941 223.72 55.9841 223.45 55.6441 223.1C55.3141 222.75 55.0591 222.325 54.8791 221.825C54.6991 221.325 54.6091 220.76 54.6091 220.13C54.6091 219.5 54.6991 218.935 54.8791 218.435C55.0591 217.935 55.3141 217.51 55.6441 217.16C55.9841 216.81 56.3941 216.545 56.8741 216.365C57.3541 216.175 57.8941 216.08 58.4941 216.08C59.0941 216.08 59.6341 216.175 60.1141 216.365C60.5941 216.545 60.9991 216.81 61.3291 217.16C61.6691 217.51 61.9291 217.935 62.1091 218.435C62.2891 218.935 62.3791 219.5 62.3791 220.13C62.3791 220.76 62.2891 221.325 62.1091 221.825C61.9291 222.325 61.6691 222.75 61.3291 223.1C60.9991 223.45 60.5941 223.72 60.1141 223.91C59.6341 224.09 59.0941 224.18 58.4941 224.18ZM58.4941 222.53C58.9941 222.53 59.3841 222.375 59.6641 222.065C59.9441 221.755 60.0841 221.315 60.0841 220.745V219.515C60.0841 218.945 59.9441 218.505 59.6641 218.195C59.3841 217.885 58.9941 217.73 58.4941 217.73C57.9941 217.73 57.6041 217.885 57.3241 218.195C57.0441 218.505 56.9041 218.945 56.9041 219.515V220.745C56.9041 221.315 57.0441 221.755 57.3241 222.065C57.6041 222.375 57.9941 222.53 58.4941 222.53ZM63.4383 224V216.26H65.2233V217.4H65.3283C65.4483 217.04 65.6183 216.73 65.8383 216.47C66.0683 216.21 66.3883 216.08 66.7983 216.08C67.5483 216.08 68.0083 216.52 68.1783 217.4H68.2683C68.3283 217.22 68.4033 217.05 68.4933 216.89C68.5833 216.73 68.6933 216.59 68.8233 216.47C68.9533 216.35 69.1083 216.255 69.2883 216.185C69.4683 216.115 69.6783 216.08 69.9183 216.08C70.9983 216.08 71.5383 216.875 71.5383 218.465V224H69.7533V218.69C69.7533 218.33 69.6883 218.08 69.5583 217.94C69.4383 217.79 69.2783 217.715 69.0783 217.715C68.8883 217.715 68.7233 217.78 68.5833 217.91C68.4533 218.03 68.3883 218.22 68.3883 218.48V224H66.5883V218.69C66.5883 218.33 66.5283 218.08 66.4083 217.94C66.2983 217.79 66.1433 217.715 65.9433 217.715C65.7433 217.715 65.5733 217.78 65.4333 217.91C65.2933 218.03 65.2233 218.22 65.2233 218.48V224H63.4383ZM72.4324 224V216.26H74.2174V217.4H74.3224C74.4424 217.04 74.6124 216.73 74.8324 216.47C75.0624 216.21 75.3824 216.08 75.7924 216.08C76.5424 216.08 77.0024 216.52 77.1724 217.4H77.2624C77.3224 217.22 77.3974 217.05 77.4874 216.89C77.5774 216.73 77.6874 216.59 77.8174 216.47C77.9474 216.35 78.1024 216.255 78.2824 216.185C78.4624 216.115 78.6724 216.08 78.9124 216.08C79.9924 216.08 80.5324 216.875 80.5324 218.465V224H78.7474V218.69C78.7474 218.33 78.6824 218.08 78.5524 217.94C78.4324 217.79 78.2724 217.715 78.0724 217.715C77.8824 217.715 77.7174 217.78 77.5774 217.91C77.4474 218.03 77.3824 218.22 77.3824 218.48V224H75.5824V218.69C75.5824 218.33 75.5224 218.08 75.4024 217.94C75.2924 217.79 75.1374 217.715 74.9374 217.715C74.7374 217.715 74.5674 217.78 74.4274 217.91C74.2874 218.03 74.2174 218.22 74.2174 218.48V224H72.4324ZM86.7816 222.59H86.6916C86.5216 223.03 86.2516 223.405 85.8816 223.715C85.5216 224.025 85.0316 224.18 84.4116 224.18C84.0416 224.18 83.7016 224.12 83.3916 224C83.0816 223.87 82.8166 223.68 82.5966 223.43C82.3766 223.18 82.2016 222.875 82.0716 222.515C81.9516 222.155 81.8916 221.74 81.8916 221.27V216.26H84.1116V220.97C84.1116 221.97 84.5466 222.47 85.4166 222.47C85.5866 222.47 85.7516 222.45 85.9116 222.41C86.0816 222.36 86.2266 222.29 86.3466 222.2C86.4766 222.1 86.5816 221.98 86.6616 221.84C86.7416 221.7 86.7816 221.535 86.7816 221.345V216.26H89.0016V224H86.7816V222.59ZM90.9457 224V216.26H93.1657V217.67H93.2557C93.3457 217.45 93.4557 217.245 93.5857 217.055C93.7157 216.865 93.8707 216.7 94.0507 216.56C94.2407 216.41 94.4557 216.295 94.6957 216.215C94.9457 216.125 95.2257 216.08 95.5357 216.08C95.9057 216.08 96.2457 216.145 96.5557 216.275C96.8657 216.395 97.1307 216.58 97.3507 216.83C97.5707 217.08 97.7407 217.385 97.8607 217.745C97.9907 218.105 98.0557 218.52 98.0557 218.99V224H95.8357V219.29C95.8357 218.29 95.4007 217.79 94.5307 217.79C94.3607 217.79 94.1907 217.815 94.0207 217.865C93.8607 217.905 93.7157 217.975 93.5857 218.075C93.4557 218.165 93.3507 218.28 93.2707 218.42C93.2007 218.56 93.1657 218.725 93.1657 218.915V224H90.9457ZM103.945 215.27C103.445 215.27 103.095 215.17 102.895 214.97C102.705 214.76 102.61 214.51 102.61 214.22V213.785C102.61 213.485 102.705 213.235 102.895 213.035C103.095 212.835 103.445 212.735 103.945 212.735C104.445 212.735 104.79 212.835 104.98 213.035C105.18 213.235 105.28 213.485 105.28 213.785V214.22C105.28 214.51 105.18 214.76 104.98 214.97C104.79 215.17 104.445 215.27 103.945 215.27ZM100.375 222.275H102.835V217.985H100.375V216.26H105.055V222.275H107.335V224H100.375V222.275ZM112.774 224.18C112.164 224.18 111.614 224.09 111.124 223.91C110.644 223.72 110.234 223.45 109.894 223.1C109.564 222.75 109.309 222.325 109.129 221.825C108.949 221.325 108.859 220.76 108.859 220.13C108.859 219.5 108.949 218.935 109.129 218.435C109.309 217.935 109.564 217.51 109.894 217.16C110.234 216.81 110.644 216.545 111.124 216.365C111.614 216.175 112.159 216.08 112.759 216.08C113.609 216.08 114.289 216.255 114.799 216.605C115.319 216.945 115.714 217.4 115.984 217.97L114.274 218.9C114.134 218.6 113.949 218.35 113.719 218.15C113.499 217.95 113.179 217.85 112.759 217.85C112.249 217.85 111.854 218 111.574 218.3C111.304 218.59 111.169 218.99 111.169 219.5V220.76C111.169 221.27 111.304 221.675 111.574 221.975C111.854 222.265 112.259 222.41 112.789 222.41C113.219 222.41 113.554 222.31 113.794 222.11C114.044 221.91 114.254 221.65 114.424 221.33L116.104 222.29C115.824 222.86 115.414 223.32 114.874 223.67C114.344 224.01 113.644 224.18 112.774 224.18ZM124.258 224C123.798 224 123.428 223.885 123.148 223.655C122.868 223.415 122.703 223.075 122.653 222.635H122.578C122.438 223.145 122.158 223.53 121.738 223.79C121.328 224.05 120.823 224.18 120.223 224.18C119.473 224.18 118.868 223.98 118.408 223.58C117.958 223.17 117.733 222.6 117.733 221.87C117.733 221.06 118.028 220.46 118.618 220.07C119.208 219.68 120.073 219.485 121.213 219.485H122.458V219.095C122.458 218.635 122.348 218.29 122.128 218.06C121.918 217.82 121.558 217.7 121.048 217.7C120.578 217.7 120.198 217.79 119.908 217.97C119.618 218.15 119.368 218.385 119.158 218.675L117.943 217.595C118.203 217.155 118.608 216.795 119.158 216.515C119.718 216.225 120.433 216.08 121.303 216.08C122.363 216.08 123.188 216.325 123.778 216.815C124.378 217.295 124.678 218.025 124.678 219.005V222.395H125.533V224H124.258ZM121.063 222.725C121.453 222.725 121.783 222.63 122.053 222.44C122.323 222.25 122.458 221.975 122.458 221.615V220.685H121.273C120.363 220.685 119.908 220.99 119.908 221.6V221.9C119.908 222.17 120.013 222.375 120.223 222.515C120.433 222.655 120.713 222.725 121.063 222.725ZM131.047 224C130.247 224 129.652 223.79 129.262 223.37C128.872 222.95 128.677 222.415 128.677 221.765V217.985H126.577V216.26H127.942C128.272 216.26 128.507 216.195 128.647 216.065C128.787 215.935 128.857 215.695 128.857 215.345V213.53H130.897V216.26H133.912V217.985H130.897V222.275H133.912V224H131.047ZM139.921 215.27C139.421 215.27 139.071 215.17 138.871 214.97C138.681 214.76 138.586 214.51 138.586 214.22V213.785C138.586 213.485 138.681 213.235 138.871 213.035C139.071 212.835 139.421 212.735 139.921 212.735C140.421 212.735 140.766 212.835 140.956 213.035C141.156 213.235 141.256 213.485 141.256 213.785V214.22C141.256 214.51 141.156 214.76 140.956 214.97C140.766 215.17 140.421 215.27 139.921 215.27ZM136.351 222.275H138.811V217.985H136.351V216.26H141.031V222.275H143.311V224H136.351V222.275ZM148.436 224.18C147.836 224.18 147.296 224.09 146.816 223.91C146.336 223.72 145.926 223.45 145.586 223.1C145.256 222.75 145.001 222.325 144.821 221.825C144.641 221.325 144.551 220.76 144.551 220.13C144.551 219.5 144.641 218.935 144.821 218.435C145.001 217.935 145.256 217.51 145.586 217.16C145.926 216.81 146.336 216.545 146.816 216.365C147.296 216.175 147.836 216.08 148.436 216.08C149.036 216.08 149.576 216.175 150.056 216.365C150.536 216.545 150.941 216.81 151.271 217.16C151.611 217.51 151.871 217.935 152.051 218.435C152.231 218.935 152.321 219.5 152.321 220.13C152.321 220.76 152.231 221.325 152.051 221.825C151.871 222.325 151.611 222.75 151.271 223.1C150.941 223.45 150.536 223.72 150.056 223.91C149.576 224.09 149.036 224.18 148.436 224.18ZM148.436 222.53C148.936 222.53 149.326 222.375 149.606 222.065C149.886 221.755 150.026 221.315 150.026 220.745V219.515C150.026 218.945 149.886 218.505 149.606 218.195C149.326 217.885 148.936 217.73 148.436 217.73C147.936 217.73 147.546 217.885 147.266 218.195C146.986 218.505 146.846 218.945 146.846 219.515V220.745C146.846 221.315 146.986 221.755 147.266 222.065C147.546 222.375 147.936 222.53 148.436 222.53ZM153.905 224V216.26H156.125V217.67H156.215C156.305 217.45 156.415 217.245 156.545 217.055C156.675 216.865 156.83 216.7 157.01 216.56C157.2 216.41 157.415 216.295 157.655 216.215C157.905 216.125 158.185 216.08 158.495 216.08C158.865 216.08 159.205 216.145 159.515 216.275C159.825 216.395 160.09 216.58 160.31 216.83C160.53 217.08 160.7 217.385 160.82 217.745C160.95 218.105 161.015 218.52 161.015 218.99V224H158.795V219.29C158.795 218.29 158.36 217.79 157.49 217.79C157.32 217.79 157.15 217.815 156.98 217.865C156.82 217.905 156.675 217.975 156.545 218.075C156.415 218.165 156.31 218.28 156.23 218.42C156.16 218.56 156.125 218.725 156.125 218.915V224H153.905Z" fill="#82170C"/>
    <rect x="26" y="211" width="15" height="15" fill="#82170C"/>
    <path d="M283.208 88.9155C283.208 103.757 279.06 118.312 271.218 130.984C263.376 143.656 252.144 153.955 238.754 160.751C225.363 167.547 210.332 170.578 195.308 169.512C180.285 168.445 165.85 163.322 153.586 154.705L173.04 127.825C180.293 132.922 188.831 135.952 197.716 136.583C206.602 137.213 215.492 135.421 223.411 131.401C231.331 127.382 237.974 121.291 242.612 113.796C247.249 106.302 249.703 97.6934 249.703 88.9155H283.208Z" fill="#82170C"/>
    <path d="M230.442 143.33C230.968 143.33 231.361 143.215 231.621 142.984C231.887 142.746 232.021 142.443 232.021 142.076V142C232.021 141.596 231.891 141.294 231.631 141.092C231.379 140.89 231.047 140.789 230.636 140.789C230.233 140.789 229.905 140.879 229.652 141.059C229.407 141.232 229.205 141.463 229.047 141.751L228.366 141.232C228.459 141.081 228.575 140.933 228.712 140.789C228.849 140.638 229.007 140.504 229.187 140.389C229.375 140.273 229.588 140.18 229.825 140.108C230.071 140.036 230.348 140 230.658 140C230.983 140 231.285 140.043 231.566 140.129C231.848 140.209 232.093 140.331 232.302 140.497C232.511 140.656 232.673 140.854 232.788 141.092C232.911 141.33 232.972 141.6 232.972 141.903C232.972 142.148 232.933 142.368 232.853 142.562C232.781 142.757 232.677 142.927 232.54 143.071C232.41 143.215 232.255 143.337 232.075 143.438C231.895 143.539 231.703 143.615 231.502 143.665V143.709C231.711 143.752 231.913 143.824 232.107 143.925C232.302 144.019 232.475 144.145 232.626 144.304C232.778 144.455 232.897 144.642 232.983 144.866C233.077 145.082 233.124 145.331 233.124 145.612C233.124 145.936 233.059 146.236 232.929 146.51C232.806 146.776 232.63 147.007 232.399 147.202C232.176 147.389 231.902 147.537 231.577 147.645C231.26 147.753 230.907 147.807 230.518 147.807C230.186 147.807 229.89 147.771 229.631 147.699C229.378 147.627 229.151 147.53 228.949 147.407C228.755 147.285 228.582 147.148 228.43 146.996C228.286 146.845 228.156 146.686 228.041 146.52L228.722 146.001C228.823 146.153 228.928 146.29 229.036 146.412C229.144 146.535 229.267 146.643 229.404 146.737C229.548 146.823 229.71 146.892 229.89 146.942C230.071 146.993 230.28 147.018 230.518 147.018C231.051 147.018 231.458 146.895 231.739 146.65C232.028 146.405 232.172 146.055 232.172 145.601V145.515C232.172 145.068 232.031 144.722 231.75 144.477C231.476 144.231 231.062 144.109 230.507 144.109H229.609V143.33H230.442ZM239.424 140.919H236.05L235.834 143.806H235.909C236.097 143.554 236.306 143.355 236.537 143.211C236.767 143.06 237.085 142.984 237.488 142.984C237.82 142.984 238.123 143.038 238.397 143.146C238.678 143.247 238.919 143.399 239.121 143.601C239.323 143.802 239.482 144.048 239.597 144.336C239.712 144.617 239.77 144.942 239.77 145.309C239.77 145.677 239.712 146.016 239.597 146.326C239.482 146.629 239.312 146.892 239.089 147.115C238.865 147.331 238.595 147.501 238.278 147.623C237.961 147.746 237.6 147.807 237.196 147.807C236.879 147.807 236.594 147.771 236.342 147.699C236.097 147.627 235.877 147.53 235.682 147.407C235.495 147.285 235.329 147.148 235.185 146.996C235.041 146.845 234.911 146.686 234.796 146.52L235.477 146.001C235.578 146.153 235.679 146.29 235.78 146.412C235.888 146.535 236.01 146.643 236.147 146.737C236.284 146.823 236.439 146.892 236.612 146.942C236.785 146.993 236.987 147.018 237.218 147.018C237.737 147.018 238.134 146.877 238.408 146.596C238.689 146.315 238.829 145.926 238.829 145.428V145.342C238.829 144.844 238.689 144.455 238.408 144.174C238.126 143.893 237.723 143.752 237.196 143.752C236.836 143.752 236.555 143.813 236.353 143.936C236.158 144.058 235.978 144.21 235.812 144.39L235.044 144.282L235.315 140.129H239.424V140.919ZM242.318 143.828C241.842 143.828 241.453 143.669 241.15 143.352C240.854 143.027 240.707 142.548 240.707 141.914C240.707 141.279 240.854 140.803 241.15 140.486C241.453 140.162 241.842 140 242.318 140C242.794 140 243.18 140.162 243.475 140.486C243.778 140.803 243.929 141.279 243.929 141.914C243.929 142.548 243.778 143.027 243.475 143.352C243.18 143.669 242.794 143.828 242.318 143.828ZM242.318 143.244C242.578 143.244 242.787 143.154 242.945 142.973C243.111 142.793 243.194 142.53 243.194 142.184V141.643C243.194 141.297 243.111 141.034 242.945 140.854C242.787 140.674 242.578 140.583 242.318 140.583C242.058 140.583 241.846 140.674 241.68 140.854C241.521 141.034 241.442 141.297 241.442 141.643V142.184C241.442 142.53 241.521 142.793 241.68 142.973C241.846 143.154 242.058 143.244 242.318 143.244ZM246.006 140.129H246.784L245.054 143.374H244.275L246.006 140.129ZM242.415 144.433H243.194L241.464 147.677H240.685L242.415 144.433ZM245.151 147.807C244.675 147.807 244.286 147.649 243.983 147.331C243.688 147.007 243.54 146.528 243.54 145.893C243.54 145.259 243.688 144.783 243.983 144.466C244.286 144.141 244.675 143.979 245.151 143.979C245.627 143.979 246.013 144.141 246.308 144.466C246.611 144.783 246.763 145.259 246.763 145.893C246.763 146.528 246.611 147.007 246.308 147.331C246.013 147.649 245.627 147.807 245.151 147.807ZM245.151 147.223C245.411 147.223 245.62 147.133 245.778 146.953C245.944 146.773 246.027 146.51 246.027 146.164V145.623C246.027 145.277 245.944 145.014 245.778 144.833C245.62 144.653 245.411 144.563 245.151 144.563C244.892 144.563 244.679 144.653 244.513 144.833C244.355 145.014 244.275 145.277 244.275 145.623V146.164C244.275 146.51 244.355 146.773 244.513 146.953C244.679 147.133 244.892 147.223 245.151 147.223Z" fill="white"/>
    <path d="M201.202 6.90894C211.971 6.90894 222.635 8.99902 232.584 13.0598C242.534 17.1207 251.574 23.0727 259.189 30.5762C266.804 38.0796 272.845 46.9875 276.966 56.7912C281.087 66.5949 283.208 77.1024 283.208 87.7139L249.703 87.7139C249.703 81.4379 248.448 75.2234 246.011 69.4252C243.574 63.6269 240.001 58.3585 235.497 53.9208C230.994 49.483 225.647 45.9627 219.762 43.561C213.878 41.1593 207.571 39.9232 201.202 39.9232V6.90894Z" fill="#2B2E41"/>
    <path d="M201.202 6.90894C211.971 6.90894 222.635 8.99902 232.584 13.0598C242.534 17.1207 251.574 23.0727 259.189 30.5762C266.804 38.0796 272.845 46.9875 276.966 56.7912C281.087 66.5949 283.208 77.1024 283.208 87.7139L249.703 87.7139C249.703 81.4379 248.448 75.2234 246.011 69.4252C243.574 63.6269 240.001 58.3585 235.497 53.9208C230.994 49.483 225.647 45.9627 219.762 43.561C213.878 41.1593 207.571 39.9232 201.202 39.9232V6.90894Z" fill="#2B2E41"/>
    <path d="M243.543 47.3472H238.503V46.4172L241.023 44.1462C241.391 43.8146 241.693 43.4757 241.931 43.1297C242.169 42.7764 242.288 42.4052 242.288 42.0158V41.8861C242.288 41.4319 242.169 41.0822 241.931 40.8371C241.693 40.5848 241.34 40.4586 240.871 40.4586C240.41 40.4586 240.053 40.5776 239.801 40.8155C239.556 41.0462 239.372 41.3562 239.249 41.7455L238.438 41.4427C238.51 41.2192 238.608 41.0029 238.73 40.7939C238.86 40.5776 239.022 40.3865 239.217 40.2207C239.412 40.0549 239.646 39.9215 239.92 39.8206C240.201 39.7197 240.525 39.6692 240.893 39.6692C241.268 39.6692 241.6 39.7233 241.888 39.8314C242.184 39.9395 242.429 40.0909 242.623 40.2856C242.825 40.4803 242.977 40.711 243.078 40.9777C243.186 41.2444 243.24 41.5364 243.24 41.8536C243.24 42.142 243.196 42.4124 243.11 42.6647C243.031 42.917 242.915 43.1585 242.764 43.3892C242.62 43.6199 242.443 43.847 242.234 44.0705C242.032 44.2868 241.805 44.5031 241.553 44.7194L239.444 46.5577H243.543V47.3472ZM249.637 40.5884H246.263L246.047 43.4757H246.123C246.31 43.2234 246.519 43.0252 246.75 42.881C246.981 42.7296 247.298 42.6539 247.702 42.6539C248.033 42.6539 248.336 42.7079 248.61 42.8161C248.891 42.917 249.133 43.0684 249.335 43.2703C249.537 43.4721 249.695 43.7173 249.81 44.0056C249.926 44.2868 249.983 44.6112 249.983 44.9789C249.983 45.3466 249.926 45.6854 249.81 45.9954C249.695 46.2982 249.526 46.5613 249.302 46.7848C249.079 47.0011 248.808 47.1705 248.491 47.2931C248.174 47.4157 247.813 47.4769 247.41 47.4769C247.093 47.4769 246.808 47.4409 246.555 47.3688C246.31 47.2967 246.09 47.1994 245.896 47.0768C245.708 46.9543 245.543 46.8173 245.398 46.6659C245.254 46.5145 245.124 46.3559 245.009 46.1901L245.69 45.671C245.791 45.8224 245.892 45.9594 245.993 46.0819C246.101 46.2045 246.224 46.3126 246.361 46.4063C246.498 46.4929 246.653 46.5613 246.826 46.6118C246.999 46.6623 247.201 46.6875 247.431 46.6875C247.95 46.6875 248.347 46.5469 248.621 46.2658C248.902 45.9846 249.043 45.5953 249.043 45.0978V45.0113C249.043 44.5139 248.902 44.1246 248.621 43.8434C248.34 43.5623 247.936 43.4217 247.41 43.4217C247.049 43.4217 246.768 43.483 246.566 43.6055C246.372 43.7281 246.191 43.8795 246.026 44.0597L245.258 43.9516L245.528 39.799H249.637V40.5884ZM252.531 43.4974C252.056 43.4974 251.666 43.3388 251.363 43.0216C251.068 42.6971 250.92 42.2177 250.92 41.5833C250.92 40.9489 251.068 40.473 251.363 40.1558C251.666 39.8314 252.056 39.6692 252.531 39.6692C253.007 39.6692 253.393 39.8314 253.688 40.1558C253.991 40.473 254.143 40.9489 254.143 41.5833C254.143 42.2177 253.991 42.6971 253.688 43.0216C253.393 43.3388 253.007 43.4974 252.531 43.4974ZM252.531 42.9134C252.791 42.9134 253 42.8233 253.159 42.6431C253.324 42.4628 253.407 42.1997 253.407 41.8536V41.3129C253.407 40.9669 253.324 40.7037 253.159 40.5235C253 40.3433 252.791 40.2532 252.531 40.2532C252.272 40.2532 252.059 40.3433 251.893 40.5235C251.735 40.7037 251.655 40.9669 251.655 41.3129V41.8536C251.655 42.1997 251.735 42.4628 251.893 42.6431C252.059 42.8233 252.272 42.9134 252.531 42.9134ZM256.219 39.799H256.998L255.267 43.0432H254.489L256.219 39.799ZM252.629 44.103H253.407L251.677 47.3472H250.898L252.629 44.103ZM255.365 47.4769C254.889 47.4769 254.5 47.3183 254.197 47.0011C253.901 46.6767 253.753 46.1973 253.753 45.5629C253.753 44.9284 253.901 44.4526 254.197 44.1354C254.5 43.811 254.889 43.6488 255.365 43.6488C255.84 43.6488 256.226 43.811 256.522 44.1354C256.825 44.4526 256.976 44.9284 256.976 45.5629C256.976 46.1973 256.825 46.6767 256.522 47.0011C256.226 47.3183 255.84 47.4769 255.365 47.4769ZM255.365 46.893C255.624 46.893 255.833 46.8029 255.992 46.6226C256.158 46.4424 256.241 46.1793 256.241 45.8332V45.2925C256.241 44.9465 256.158 44.6833 255.992 44.5031C255.833 44.3228 255.624 44.2327 255.365 44.2327C255.105 44.2327 254.892 44.3228 254.727 44.5031C254.568 44.6833 254.489 44.9465 254.489 45.2925V45.8332C254.489 46.1793 254.568 46.4424 254.727 46.6226C254.892 46.8029 255.105 46.893 255.365 46.893Z" fill="white"/>
    <path d="M154.081 21.58C167.633 12.2048 183.749 7.09182 200.307 6.91375L200.672 39.926C190.879 40.0313 181.348 43.0553 173.333 48.6001L154.081 21.58Z" fill="#971F96"/>
    <path d="M173.169 30.5254V29.736H175.332V23.6477H175.257L173.353 25.4212L172.823 24.848L174.824 22.9772H176.241V29.736H178.23V30.5254H173.169ZM181.979 30.6552C181.517 30.6552 181.121 30.5686 180.789 30.3956C180.458 30.2154 180.184 29.9595 179.967 29.6278C179.751 29.2962 179.592 28.8889 179.491 28.4058C179.391 27.9228 179.34 27.3713 179.34 26.7513C179.34 26.1385 179.391 25.5906 179.491 25.1076C179.592 24.6173 179.751 24.2064 179.967 23.8748C180.184 23.5431 180.458 23.2908 180.789 23.1178C181.121 22.9375 181.517 22.8474 181.979 22.8474C182.44 22.8474 182.837 22.9375 183.168 23.1178C183.5 23.2908 183.774 23.5431 183.99 23.8748C184.206 24.2064 184.365 24.6173 184.466 25.1076C184.567 25.5906 184.617 26.1385 184.617 26.7513C184.617 27.3713 184.567 27.9228 184.466 28.4058C184.365 28.8889 184.206 29.2962 183.99 29.6278C183.774 29.9595 183.5 30.2154 183.168 30.3956C182.837 30.5686 182.44 30.6552 181.979 30.6552ZM181.979 29.8657C182.282 29.8657 182.541 29.8081 182.757 29.6927C182.974 29.5702 183.147 29.4007 183.276 29.1844C183.413 28.9682 183.514 28.7086 183.579 28.4058C183.644 28.0958 183.677 27.7498 183.677 27.3677V26.1349C183.677 25.76 183.644 25.4176 183.579 25.1076C183.514 24.7976 183.413 24.5344 183.276 24.3181C183.147 24.1018 182.974 23.936 182.757 23.8207C182.541 23.6981 182.282 23.6368 181.979 23.6368C181.676 23.6368 181.416 23.6981 181.2 23.8207C180.984 23.936 180.807 24.1018 180.67 24.3181C180.54 24.5344 180.443 24.7976 180.378 25.1076C180.313 25.4176 180.281 25.76 180.281 26.1349V27.3677C180.281 27.7498 180.313 28.0958 180.378 28.4058C180.443 28.7086 180.54 28.9682 180.67 29.1844C180.807 29.4007 180.984 29.5702 181.2 29.6927C181.416 29.8081 181.676 29.8657 181.979 29.8657ZM181.979 27.3893C181.726 27.3893 181.55 27.3389 181.449 27.2379C181.355 27.137 181.308 27.0144 181.308 26.8702V26.6323C181.308 26.4881 181.355 26.3656 181.449 26.2647C181.55 26.1637 181.726 26.1133 181.979 26.1133C182.231 26.1133 182.404 26.1637 182.498 26.2647C182.599 26.3656 182.649 26.4881 182.649 26.6323V26.8702C182.649 27.0144 182.599 27.137 182.498 27.2379C182.404 27.3389 182.231 27.3893 181.979 27.3893ZM187.046 26.6756C186.57 26.6756 186.181 26.517 185.878 26.1998C185.583 25.8754 185.435 25.3959 185.435 24.7615C185.435 24.1271 185.583 23.6513 185.878 23.3341C186.181 23.0096 186.57 22.8474 187.046 22.8474C187.522 22.8474 187.908 23.0096 188.203 23.3341C188.506 23.6513 188.658 24.1271 188.658 24.7615C188.658 25.3959 188.506 25.8754 188.203 26.1998C187.908 26.517 187.522 26.6756 187.046 26.6756ZM187.046 26.0916C187.306 26.0916 187.515 26.0015 187.673 25.8213C187.839 25.641 187.922 25.3779 187.922 25.0319V24.4912C187.922 24.1451 187.839 23.882 187.673 23.7017C187.515 23.5215 187.306 23.4314 187.046 23.4314C186.787 23.4314 186.574 23.5215 186.408 23.7017C186.25 23.882 186.17 24.1451 186.17 24.4912V25.0319C186.17 25.3779 186.25 25.641 186.408 25.8213C186.574 26.0015 186.787 26.0916 187.046 26.0916ZM190.734 22.9772H191.512L189.782 26.2214H189.004L190.734 22.9772ZM187.144 27.2812H187.922L186.192 30.5254H185.413L187.144 27.2812ZM189.88 30.6552C189.404 30.6552 189.014 30.4966 188.712 30.1793C188.416 29.8549 188.268 29.3755 188.268 28.7411C188.268 28.1066 188.416 27.6308 188.712 27.3136C189.014 26.9892 189.404 26.827 189.88 26.827C190.355 26.827 190.741 26.9892 191.037 27.3136C191.339 27.6308 191.491 28.1066 191.491 28.7411C191.491 29.3755 191.339 29.8549 191.037 30.1793C190.741 30.4966 190.355 30.6552 189.88 30.6552ZM189.88 30.0712C190.139 30.0712 190.348 29.9811 190.507 29.8008C190.673 29.6206 190.755 29.3575 190.755 29.0114V28.4707C190.755 28.1247 190.673 27.8615 190.507 27.6813C190.348 27.5011 190.139 27.4109 189.88 27.4109C189.62 27.4109 189.407 27.5011 189.242 27.6813C189.083 27.8615 189.004 28.1247 189.004 28.4707V29.0114C189.004 29.3575 189.083 29.6206 189.242 29.8008C189.407 29.9811 189.62 30.0712 189.88 30.0712Z" fill="white"/>
    <path d="M123.094 112.934C117.809 96.655 117.899 79.1444 123.35 62.9191C128.802 46.6939 139.334 32.5896 153.433 22.6339L172.949 49.4688C164.611 55.3569 158.382 63.6987 155.158 73.2948C151.934 82.891 151.881 93.2473 155.006 102.875L123.094 112.934Z" fill="#444FF0"/>
    <path d="M135.402 74.3821H130.363V73.4521L132.882 71.1811C133.25 70.8495 133.553 70.5107 133.791 70.1646C134.029 69.8113 134.148 69.4401 134.148 69.0508V68.921C134.148 68.4668 134.029 68.1171 133.791 67.872C133.553 67.6197 133.2 67.4935 132.731 67.4935C132.27 67.4935 131.913 67.6125 131.661 67.8504C131.415 68.0811 131.232 68.3911 131.109 68.7804L130.298 68.4776C130.37 68.2541 130.467 68.0378 130.59 67.8288C130.72 67.6125 130.882 67.4214 131.077 67.2556C131.271 67.0898 131.506 66.9564 131.779 66.8555C132.061 66.7546 132.385 66.7041 132.753 66.7041C133.128 66.7041 133.459 66.7582 133.748 66.8663C134.043 66.9745 134.288 67.1259 134.483 67.3205C134.685 67.5152 134.836 67.7459 134.937 68.0126C135.045 68.2794 135.099 68.5713 135.099 68.8885C135.099 69.1769 135.056 69.4473 134.97 69.6996C134.89 69.9519 134.775 70.1934 134.624 70.4241C134.479 70.6548 134.303 70.8819 134.094 71.1054C133.892 71.3217 133.665 71.538 133.412 71.7543L131.304 73.5927H135.402V74.3821ZM139.323 74.5118C138.862 74.5118 138.466 74.4253 138.134 74.2523C137.802 74.0721 137.528 73.8161 137.312 73.4845C137.096 73.1529 136.937 72.7456 136.836 72.2625C136.735 71.7795 136.685 71.228 136.685 70.608C136.685 69.9952 136.735 69.4473 136.836 68.9642C136.937 68.474 137.096 68.0631 137.312 67.7314C137.528 67.3998 137.802 67.1475 138.134 66.9745C138.466 66.7942 138.862 66.7041 139.323 66.7041C139.785 66.7041 140.181 66.7942 140.513 66.9745C140.845 67.1475 141.119 67.3998 141.335 67.7314C141.551 68.0631 141.71 68.474 141.811 68.9642C141.912 69.4473 141.962 69.9952 141.962 70.608C141.962 71.228 141.912 71.7795 141.811 72.2625C141.71 72.7456 141.551 73.1529 141.335 73.4845C141.119 73.8161 140.845 74.0721 140.513 74.2523C140.181 74.4253 139.785 74.5118 139.323 74.5118ZM139.323 73.7224C139.626 73.7224 139.886 73.6647 140.102 73.5494C140.318 73.4268 140.491 73.2574 140.621 73.0411C140.758 72.8249 140.859 72.5653 140.924 72.2625C140.989 71.9525 141.021 71.6065 141.021 71.2244V69.9916C141.021 69.6167 140.989 69.2742 140.924 68.9642C140.859 68.6542 140.758 68.3911 140.621 68.1748C140.491 67.9585 140.318 67.7927 140.102 67.6774C139.886 67.5548 139.626 67.4935 139.323 67.4935C139.021 67.4935 138.761 67.5548 138.545 67.6774C138.329 67.7927 138.152 67.9585 138.015 68.1748C137.885 68.3911 137.788 68.6542 137.723 68.9642C137.658 69.2742 137.626 69.6167 137.626 69.9916V71.2244C137.626 71.6065 137.658 71.9525 137.723 72.2625C137.788 72.5653 137.885 72.8249 138.015 73.0411C138.152 73.2574 138.329 73.4268 138.545 73.5494C138.761 73.6647 139.021 73.7224 139.323 73.7224ZM139.323 71.246C139.071 71.246 138.894 71.1955 138.794 71.0946C138.7 70.9937 138.653 70.8711 138.653 70.7269V70.489C138.653 70.3448 138.7 70.2223 138.794 70.1213C138.894 70.0204 139.071 69.97 139.323 69.97C139.576 69.97 139.749 70.0204 139.843 70.1213C139.943 70.2223 139.994 70.3448 139.994 70.489V70.7269C139.994 70.8711 139.943 70.9937 139.843 71.0946C139.749 71.1955 139.576 71.246 139.323 71.246ZM144.391 70.5323C143.915 70.5323 143.526 70.3737 143.223 70.0565C142.927 69.732 142.78 69.2526 142.78 68.6182C142.78 67.9838 142.927 67.508 143.223 67.1907C143.526 66.8663 143.915 66.7041 144.391 66.7041C144.867 66.7041 145.253 66.8663 145.548 67.1907C145.851 67.508 146.002 67.9838 146.002 68.6182C146.002 69.2526 145.851 69.732 145.548 70.0565C145.253 70.3737 144.867 70.5323 144.391 70.5323ZM144.391 69.9483C144.651 69.9483 144.86 69.8582 145.018 69.678C145.184 69.4977 145.267 69.2346 145.267 68.8885V68.3478C145.267 68.0018 145.184 67.7387 145.018 67.5584C144.86 67.3782 144.651 67.2881 144.391 67.2881C144.131 67.2881 143.919 67.3782 143.753 67.5584C143.594 67.7387 143.515 68.0018 143.515 68.3478V68.8885C143.515 69.2346 143.594 69.4977 143.753 69.678C143.919 69.8582 144.131 69.9483 144.391 69.9483ZM148.079 66.8339H148.857L147.127 70.0781H146.348L148.079 66.8339ZM144.488 71.1379H145.267L143.537 74.3821H142.758L144.488 71.1379ZM147.224 74.5118C146.748 74.5118 146.359 74.3532 146.056 74.036C145.761 73.7116 145.613 73.2322 145.613 72.5978C145.613 71.9633 145.761 71.4875 146.056 71.1703C146.359 70.8459 146.748 70.6837 147.224 70.6837C147.7 70.6837 148.086 70.8459 148.381 71.1703C148.684 71.4875 148.836 71.9633 148.836 72.5978C148.836 73.2322 148.684 73.7116 148.381 74.036C148.086 74.3532 147.7 74.5118 147.224 74.5118ZM147.224 73.9279C147.484 73.9279 147.693 73.8378 147.851 73.6575C148.017 73.4773 148.1 73.2142 148.1 72.8681V72.3274C148.1 71.9814 148.017 71.7182 147.851 71.538C147.693 71.3578 147.484 71.2676 147.224 71.2676C146.965 71.2676 146.752 71.3578 146.586 71.538C146.428 71.7182 146.348 71.9814 146.348 72.3274V72.8681C146.348 73.2142 146.428 73.4773 146.586 73.6575C146.752 73.8378 146.965 73.9279 147.224 73.9279Z" fill="white"/>
    <path d="M152.871 154.196C139.022 144.241 128.687 130.261 123.32 114.219L155.14 103.881C158.314 113.368 164.427 121.637 172.617 127.525L152.871 154.196Z" fill="#FC9938"/>
    <path d="M140.127 130.856V130.066H142.289V123.978H142.214L140.31 125.751L139.78 125.178L141.781 123.308H143.198V130.066H145.187V130.856H140.127ZM148.936 130.985C148.474 130.985 148.078 130.899 147.746 130.726C147.415 130.546 147.141 130.29 146.924 129.958C146.708 129.627 146.549 129.219 146.449 128.736C146.348 128.253 146.297 127.702 146.297 127.082C146.297 126.469 146.348 125.921 146.449 125.438C146.549 124.948 146.708 124.537 146.924 124.205C147.141 123.873 147.415 123.621 147.746 123.448C148.078 123.268 148.474 123.178 148.936 123.178C149.397 123.178 149.794 123.268 150.125 123.448C150.457 123.621 150.731 123.873 150.947 124.205C151.163 124.537 151.322 124.948 151.423 125.438C151.524 125.921 151.574 126.469 151.574 127.082C151.574 127.702 151.524 128.253 151.423 128.736C151.322 129.219 151.163 129.627 150.947 129.958C150.731 130.29 150.457 130.546 150.125 130.726C149.794 130.899 149.397 130.985 148.936 130.985ZM148.936 130.196C149.239 130.196 149.498 130.138 149.714 130.023C149.931 129.9 150.104 129.731 150.233 129.515C150.37 129.298 150.471 129.039 150.536 128.736C150.601 128.426 150.634 128.08 150.634 127.698V126.465C150.634 126.09 150.601 125.748 150.536 125.438C150.471 125.128 150.37 124.865 150.233 124.648C150.104 124.432 149.931 124.266 149.714 124.151C149.498 124.028 149.239 123.967 148.936 123.967C148.633 123.967 148.373 124.028 148.157 124.151C147.941 124.266 147.764 124.432 147.627 124.648C147.497 124.865 147.4 125.128 147.335 125.438C147.27 125.748 147.238 126.09 147.238 126.465V127.698C147.238 128.08 147.27 128.426 147.335 128.736C147.4 129.039 147.497 129.298 147.627 129.515C147.764 129.731 147.941 129.9 148.157 130.023C148.373 130.138 148.633 130.196 148.936 130.196ZM148.936 127.72C148.683 127.72 148.507 127.669 148.406 127.568C148.312 127.467 148.265 127.345 148.265 127.201V126.963C148.265 126.818 148.312 126.696 148.406 126.595C148.507 126.494 148.683 126.444 148.936 126.444C149.188 126.444 149.361 126.494 149.455 126.595C149.556 126.696 149.606 126.818 149.606 126.963V127.201C149.606 127.345 149.556 127.467 149.455 127.568C149.361 127.669 149.188 127.72 148.936 127.72ZM154.003 127.006C153.527 127.006 153.138 126.847 152.835 126.53C152.54 126.206 152.392 125.726 152.392 125.092C152.392 124.457 152.54 123.982 152.835 123.664C153.138 123.34 153.527 123.178 154.003 123.178C154.479 123.178 154.865 123.34 155.16 123.664C155.463 123.982 155.615 124.457 155.615 125.092C155.615 125.726 155.463 126.206 155.16 126.53C154.865 126.847 154.479 127.006 154.003 127.006ZM154.003 126.422C154.263 126.422 154.472 126.332 154.631 126.152C154.796 125.971 154.879 125.708 154.879 125.362V124.821C154.879 124.475 154.796 124.212 154.631 124.032C154.472 123.852 154.263 123.762 154.003 123.762C153.744 123.762 153.531 123.852 153.365 124.032C153.207 124.212 153.127 124.475 153.127 124.821V125.362C153.127 125.708 153.207 125.971 153.365 126.152C153.531 126.332 153.744 126.422 154.003 126.422ZM157.691 123.308H158.47L156.739 126.552H155.961L157.691 123.308ZM154.101 127.612H154.879L153.149 130.856H152.37L154.101 127.612ZM156.837 130.985C156.361 130.985 155.971 130.827 155.669 130.51C155.373 130.185 155.225 129.706 155.225 129.071C155.225 128.437 155.373 127.961 155.669 127.644C155.971 127.32 156.361 127.157 156.837 127.157C157.312 127.157 157.698 127.32 157.994 127.644C158.296 127.961 158.448 128.437 158.448 129.071C158.448 129.706 158.296 130.185 157.994 130.51C157.698 130.827 157.312 130.985 156.837 130.985ZM156.837 130.402C157.096 130.402 157.305 130.311 157.464 130.131C157.63 129.951 157.713 129.688 157.713 129.342V128.801C157.713 128.455 157.63 128.192 157.464 128.012C157.305 127.831 157.096 127.741 156.837 127.741C156.577 127.741 156.364 127.831 156.199 128.012C156.04 128.192 155.961 128.455 155.961 128.801V129.342C155.961 129.688 156.04 129.951 156.199 130.131C156.364 130.311 156.577 130.402 156.837 130.402Z" fill="white"/>
    <circle cx="201.202" cy="88.3145" r="48.3628" fill="#C4C4C4" fillOpacity="0.5"/>
</svg>