<svg width="216" height="219" viewBox="0 0 216 219" fill="none" xmlns="http://www.w3.org/2000/svg">
<path d="M0 109.842V99.2344C9.58852 99.2344 16.2775 97.2383 20.067 93.2461C23.9139 89.2539 25.8373 82.5813 25.8373 73.2281V45.8531C25.8373 37.9828 26.5837 31.1676 28.0766 25.4074C29.6268 19.6473 32.1244 14.8852 35.5694 11.1211C39.0144 7.35704 43.6077 4.56251 49.3493 2.73751C55.0909 0.912504 62.1818 0 70.622 0V16.7672C63.9617 16.7672 58.7081 17.7938 54.8613 19.8469C51.0718 21.9 48.3732 25.0938 46.7656 29.4281C45.2153 33.7055 44.4402 39.1805 44.4402 45.8531V80.0719C44.4402 84.5203 43.8373 88.5695 42.6316 92.2195C41.4833 95.8695 39.3301 99.0063 36.1723 101.63C33.0144 104.253 28.5072 106.278 22.6507 107.704C16.8517 109.129 9.30144 109.842 0 109.842ZM70.622 219C62.1818 219 55.0909 218.087 49.3493 216.262C43.6077 214.437 39.0144 211.643 35.5694 207.879C32.1244 204.115 29.6268 199.353 28.0766 193.593C26.5837 187.832 25.8373 181.017 25.8373 173.147V145.772C25.8373 136.419 23.9139 129.746 20.067 125.754C16.2775 121.762 9.58852 119.766 0 119.766V109.158C9.30144 109.158 16.8517 109.871 22.6507 111.296C28.5072 112.722 33.0144 114.747 36.1723 117.37C39.3301 119.994 41.4833 123.13 42.6316 126.78C43.8373 130.43 44.4402 134.48 44.4402 138.928V173.147C44.4402 179.82 45.2153 185.295 46.7656 189.572C48.3732 193.849 51.0718 197.014 54.8613 199.068C58.7081 201.178 63.9617 202.233 70.622 202.233V219ZM0 119.766V99.2344H20.3254V119.766H0Z" fill="#192A51"/>
<path d="M216 109.158V119.766C206.411 119.766 199.694 121.762 195.847 125.754C192.057 129.746 190.163 136.419 190.163 145.772V173.147C190.163 181.017 189.388 187.832 187.837 193.593C186.344 199.353 183.876 204.115 180.431 207.879C176.986 211.643 172.392 214.437 166.651 216.262C160.909 218.087 153.818 219 145.378 219V202.233C152.038 202.233 157.263 201.178 161.053 199.068C164.9 197.014 167.598 193.849 169.148 189.572C170.756 185.295 171.56 179.82 171.56 173.147V138.928C171.56 134.48 172.134 130.43 173.282 126.78C174.488 123.13 176.67 119.994 179.828 117.37C182.986 114.747 187.464 112.722 193.263 111.296C199.12 109.871 206.699 109.158 216 109.158ZM145.378 0C153.818 0 160.909 0.912504 166.651 2.73751C172.392 4.56251 176.986 7.35704 180.431 11.1211C183.876 14.8852 186.344 19.6473 187.837 25.4074C189.388 31.1676 190.163 37.9828 190.163 45.8531V73.2281C190.163 82.5813 192.057 89.2539 195.847 93.2461C199.694 97.2383 206.411 99.2344 216 99.2344V109.842C206.699 109.842 199.12 109.129 193.263 107.704C187.464 106.278 182.986 104.253 179.828 101.63C176.67 99.0063 174.488 95.8695 173.282 92.2195C172.134 88.5695 171.56 84.5203 171.56 80.0719V45.8531C171.56 39.1805 170.756 33.7055 169.148 29.4281C167.598 25.0938 164.9 21.9 161.053 19.8469C157.263 17.7938 152.038 16.7672 145.378 16.7672V0ZM216 99.2344V119.766H195.675V99.2344H216Z" fill="#192A51"/>
<path d="M142.622 0H73.7225V16.425H94.3923C95.7703 16.425 98.5263 17.7937 98.5263 21.9V79.3875L108.172 87.6L117.818 79.3875V21.9C117.818 17.7937 120.574 16.425 121.952 16.425H142.622V0Z" fill="#FF9575"/>
<path d="M73.7225 202.575L73.7225 219L142.652 219V202.575C142.652 202.575 123.333 202.577 121.955 202.575C120.577 202.572 117.85 202.676 117.858 198.57L117.878 187.62L117.818 145.087L108.172 136.875L98.5859 145.087L98.5859 187.585L98.566 198.535C98.5586 202.641 95.7729 202.577 94.3949 202.575C93.0169 202.572 73.7225 202.575 73.7225 202.575Z" fill="#FF9575"/>
</svg>
