<svg width="268" height="251" viewBox="0 0 268 251" fill="none" xmlns="http://www.w3.org/2000/svg">
<path d="M43.2832 95.013V85.8373C51.5347 85.8373 57.2909 84.1107 60.552 80.6574C63.8625 77.2042 65.5177 71.4324 65.5177 63.342V39.6627C65.5177 32.855 66.16 26.9598 67.4447 21.9773C68.7788 16.9948 70.9281 12.8756 73.8927 9.6197C76.8573 6.3638 80.8101 3.94655 85.7511 2.36793C90.6921 0.789311 96.7943 0 104.058 0V14.5035C98.326 14.5035 93.805 15.3915 90.4945 17.1675C87.2334 18.9434 84.9112 21.706 83.5277 25.4552C82.1936 29.1551 81.5266 33.8909 81.5266 39.6627V69.2618C81.5266 73.1097 81.0078 76.6122 79.9702 79.7695C78.982 82.9267 77.1291 85.6399 74.4115 87.9092C71.694 90.1785 67.8153 91.9297 62.7755 93.163C57.785 94.3963 51.2876 95.013 43.2832 95.013ZM104.058 189.434C96.7943 189.434 90.6921 188.645 85.7511 187.066C80.8101 185.487 76.8573 183.07 73.8927 179.814C70.9281 176.558 68.7788 172.439 67.4447 167.457C66.16 162.474 65.5177 156.579 65.5177 149.771V126.092C65.5177 118.002 63.8625 112.23 60.552 108.777C57.2909 105.323 51.5347 103.597 43.2832 103.597V94.421C51.2876 94.421 57.785 95.0376 62.7755 96.2709C67.8153 97.5042 71.694 99.2555 74.4115 101.525C77.1291 103.794 78.982 106.507 79.9702 109.665C81.0078 112.822 81.5266 116.324 81.5266 120.172V149.771C81.5266 155.543 82.1936 160.279 83.5277 163.979C84.9112 167.679 87.2334 170.417 90.4945 172.193C93.805 174.018 98.326 174.93 104.058 174.93V189.434ZM43.2832 103.597V85.8373H60.7744V103.597H43.2832Z" fill="#F9E8D5"/>
<path d="M229.164 94.421V103.597C220.912 103.597 215.131 105.323 211.821 108.777C208.56 112.23 206.929 118.002 206.929 126.092V149.771C206.929 156.579 206.262 162.474 204.928 167.457C203.643 172.439 201.519 176.558 198.554 179.814C195.59 183.07 191.637 185.487 186.696 187.066C181.755 188.645 175.653 189.434 168.389 189.434V174.93C174.121 174.93 178.617 174.018 181.878 172.193C185.189 170.417 187.511 167.679 188.845 163.979C190.229 160.279 190.92 155.543 190.92 149.771V120.172C190.92 116.324 191.414 112.822 192.403 109.665C193.44 106.507 195.318 103.794 198.035 101.525C200.753 99.2555 204.607 97.5042 209.597 96.2709C214.637 95.0376 221.159 94.421 229.164 94.421ZM168.389 0C175.653 0 181.755 0.789311 186.696 2.36793C191.637 3.94655 195.59 6.3638 198.554 9.6197C201.519 12.8756 203.643 16.9948 204.928 21.9773C206.262 26.9598 206.929 32.855 206.929 39.6627V63.342C206.929 71.4324 208.56 77.2042 211.821 80.6574C215.131 84.1107 220.912 85.8373 229.164 85.8373V95.013C221.159 95.013 214.637 94.3963 209.597 93.163C204.607 91.9297 200.753 90.1785 198.035 87.9092C195.318 85.6399 193.44 82.9267 192.403 79.7695C191.414 76.6122 190.92 73.1097 190.92 69.2618V39.6627C190.92 33.8909 190.229 29.1551 188.845 25.4552C187.511 21.706 185.189 18.9434 181.878 17.1675C178.617 15.3915 174.121 14.5035 168.389 14.5035V0ZM229.164 85.8373V103.597H211.673V85.8373H229.164Z" fill="#F9E9D5"/>
<path d="M166.018 0H106.726V14.2075H124.513C125.699 14.2075 128.071 15.3915 128.071 18.9434V68.6698L136.372 75.7736L144.673 68.6698V18.9434C144.673 15.3915 147.044 14.2075 148.23 14.2075H166.018V0Z" fill="#FF9575"/>
<path d="M106.726 175.226L106.726 189.434L166.043 189.434V175.226C166.043 175.226 149.418 175.229 148.232 175.226C147.046 175.224 144.7 175.314 144.707 171.762L144.724 162.29L144.673 125.5L136.372 118.396L128.122 125.5L128.122 162.26L128.105 171.732C128.099 175.284 125.701 175.229 124.515 175.226C123.33 175.224 106.726 175.226 106.726 175.226Z" fill="#FF9575"/>
</svg>
