<svg width="1609" height="214" viewBox="0 0 1609 214" fill="none" xmlns="http://www.w3.org/2000/svg">
<path d="M359.476 168H340.528V116.586H278.948V168H260V48.0345H278.948V114.138L293.159 99.4483H340.528V48.0345H359.476V168Z" fill="#F9E9D5"/>
<path d="M503.86 168H479.701L430.437 116.586H482.543V65.1724H420.963V168H402.016V82.0655L418.595 65.1724H402.016V48.0345H484.912C489.333 48.0345 493.202 49.7483 496.517 53.1759C499.833 56.6035 501.491 60.6023 501.491 65.1724V111.69C501.491 124.747 495.965 131.276 484.912 131.276H470.701V133.969L503.86 168Z" fill="#F9E9D5"/>
<path d="M616.408 150.862C616.408 155.595 614.75 159.676 611.434 163.103C608.276 166.368 604.408 168 599.829 168H550.091C545.512 168 541.565 166.368 538.249 163.103C535.091 159.676 533.512 155.595 533.512 150.862V99.4483C533.512 94.7149 535.091 90.7161 538.249 87.4517C541.565 84.0241 545.512 82.3103 550.091 82.3103H599.829C604.408 82.3103 608.276 84.0241 611.434 87.4517C614.75 90.7161 616.408 94.7149 616.408 99.4483V150.862ZM599.829 153.31V97H550.091V153.31H599.829Z" fill="#F9E9D5"/>
<path d="M789.362 168H772.783V97H727.782V168H711.202V97H666.202V168H649.622V82.3103H666.202V94.5517L678.044 82.3103H711.202C720.834 82.3103 726.282 86.4724 727.545 94.7966L739.624 82.3103H772.783C777.362 82.3103 781.23 84.0241 784.388 87.4517C787.704 90.7161 789.362 94.7149 789.362 99.4483V168Z" fill="#F9E9D5"/>
<path d="M901.975 168H885.396V155.514L871.185 168H835.658C831.079 168 827.132 166.368 823.816 163.103C820.658 159.676 819.079 155.595 819.079 150.862V133.724C819.079 128.991 820.658 124.992 823.816 121.728C827.132 118.3 831.079 116.586 835.658 116.586H883.027L868.817 131.031H835.658V153.31H885.396V97H819.079L833.29 82.3103H885.396C889.975 82.3103 893.843 84.0241 897.001 87.4517C900.317 90.7161 901.975 94.7149 901.975 99.4483V168Z" fill="#F9E9D5"/>
<path d="M1017.94 168H1001.36V97H951.62V168H935.041V82.3103H951.62V94.5517L963.463 82.3103H1001.36C1005.94 82.3103 1009.81 84.0241 1012.96 87.4517C1016.28 90.7161 1017.94 94.7149 1017.94 99.4483V168Z" fill="#F9E9D5"/>
<path d="M1074.84 168H1053.52V148.414H1074.84V168Z" fill="#F9E9D5"/>
<path d="M1181.42 82.3103L1166.97 97H1126.94V153.31H1176.68V168H1126.94C1122.36 168 1118.42 166.368 1115.1 163.103C1111.94 159.676 1110.36 155.595 1110.36 150.862V99.4483C1110.36 94.7149 1111.94 90.7161 1115.1 87.4517C1118.42 84.0241 1122.36 82.3103 1126.94 82.3103H1181.42Z" fill="#F9E9D5"/>
<path d="M1280.92 150.862C1280.92 155.595 1279.26 159.676 1275.95 163.103C1272.79 166.368 1268.92 168 1264.34 168H1214.6C1210.02 168 1206.08 166.368 1202.76 163.103C1199.6 159.676 1198.02 155.595 1198.02 150.862V99.4483C1198.02 94.7149 1199.6 90.7161 1202.76 87.4517C1206.08 84.0241 1210.02 82.3103 1214.6 82.3103H1264.34C1268.92 82.3103 1272.79 84.0241 1275.95 87.4517C1279.26 90.7161 1280.92 94.7149 1280.92 99.4483V150.862ZM1264.34 153.31V97H1214.6V153.31H1264.34Z" fill="#F9E9D5"/>
<path d="M1397.03 168H1380.45V155.759L1368.61 168H1330.71C1326.14 168 1322.19 166.368 1318.87 163.103C1315.71 159.676 1314.13 155.595 1314.13 150.862V99.4483C1314.13 94.7149 1315.71 90.7161 1318.87 87.4517C1322.19 84.0241 1326.14 82.3103 1330.71 82.3103H1380.45V43.1379L1397.03 26V168ZM1380.45 153.31V84.7586L1368.61 97H1330.71V153.31H1380.45Z" fill="#F9E9D5"/>
<path d="M1515.45 168H1449.14C1444.56 168 1440.61 166.368 1437.3 163.103C1434.14 159.676 1432.56 155.595 1432.56 150.862V99.4483C1432.56 94.7149 1434.14 90.7161 1437.3 87.4517C1440.61 84.0241 1444.56 82.3103 1449.14 82.3103H1498.88C1503.45 82.3103 1507.32 84.0241 1510.48 87.4517C1513.8 90.7161 1515.45 94.7149 1515.45 99.4483V116.586L1498.88 133.724H1451.51L1465.72 119.034H1498.88V97H1449.14V153.31H1515.45V168Z" fill="#F9E9D5"/>
<path d="M1609 82.3103L1594.55 97H1554.53V116.586H1587.68C1592.26 116.586 1596.13 118.3 1599.29 121.728C1602.61 124.992 1604.26 128.991 1604.26 133.724V150.862C1604.26 155.595 1602.61 159.676 1599.29 163.103C1596.13 166.368 1592.26 168 1587.68 168H1537.95V153.31H1587.68V131.276H1554.53C1549.95 131.276 1546 129.644 1542.68 126.379C1539.52 122.952 1537.95 118.871 1537.95 114.138V99.4483C1537.95 94.7149 1539.52 90.7161 1542.68 87.4517C1546 84.0241 1549.95 82.3103 1554.53 82.3103H1609Z" fill="#F9E9D5"/>
<path d="M0 107.334V96.9687C9.77561 96.9687 16.5951 95.0182 20.4585 91.1172C24.3805 87.2161 26.3415 80.6958 26.3415 71.5563V44.8062C26.3415 37.1156 27.1024 30.456 28.6244 24.8273C30.2049 19.1987 32.7512 14.5453 36.2634 10.8672C39.7756 7.18907 44.4585 4.45834 50.3122 2.67501C56.1659 0.89167 63.3951 0 72 0V16.3844C65.2098 16.3844 59.8537 17.3875 55.9317 19.3938C52.0683 21.4 49.3171 24.5208 47.678 28.7563C46.0976 32.9359 45.3073 38.2859 45.3073 44.8062V78.2438C45.3073 82.5906 44.6927 86.5474 43.4634 90.1141C42.2927 93.6807 40.0976 96.7458 36.878 99.3094C33.6585 101.873 29.0634 103.851 23.0927 105.245C17.1805 106.638 9.48293 107.334 0 107.334ZM72 214C63.3951 214 56.1659 213.108 50.3122 211.325C44.4585 209.542 39.7756 206.811 36.2634 203.133C32.7512 199.455 30.2049 194.801 28.6244 189.173C27.1024 183.544 26.3415 176.884 26.3415 169.194V142.444C26.3415 133.304 24.3805 126.784 20.4585 122.883C16.5951 118.982 9.77561 117.031 0 117.031V106.666C9.48293 106.666 17.1805 107.362 23.0927 108.755C29.0634 110.149 33.6585 112.127 36.878 114.691C40.0976 117.254 42.2927 120.319 43.4634 123.886C44.6927 127.453 45.3073 131.409 45.3073 135.756V169.194C45.3073 175.714 46.0976 181.064 47.678 185.244C49.3171 189.423 52.0683 192.516 55.9317 194.523C59.8537 196.585 65.2098 197.616 72 197.616V214ZM0 117.031V96.9687H20.722V117.031H0Z" fill="#F9E8D5"/>
<path d="M214 106.666V117.031C204.224 117.031 197.376 118.982 193.454 122.883C189.59 126.784 187.659 133.304 187.659 142.444V169.194C187.659 176.884 186.868 183.544 185.288 189.173C183.766 194.801 181.249 199.455 177.737 203.133C174.224 206.811 169.541 209.542 163.688 211.325C157.834 213.108 150.605 214 142 214V197.616C148.79 197.616 154.117 196.585 157.98 194.523C161.902 192.516 164.654 189.423 166.234 185.244C167.873 181.064 168.693 175.714 168.693 169.194V135.756C168.693 131.409 169.278 127.453 170.449 123.886C171.678 120.319 173.902 117.254 177.122 114.691C180.341 112.127 184.907 110.149 190.82 108.755C196.79 107.362 204.517 106.666 214 106.666ZM142 0C150.605 0 157.834 0.89167 163.688 2.67501C169.541 4.45834 174.224 7.18907 177.737 10.8672C181.249 14.5453 183.766 19.1987 185.288 24.8273C186.868 30.456 187.659 37.1156 187.659 44.8062V71.5563C187.659 80.6958 189.59 87.2161 193.454 91.1172C197.376 95.0182 204.224 96.9687 214 96.9687V107.334C204.517 107.334 196.79 106.638 190.82 105.245C184.907 103.851 180.341 101.873 177.122 99.3094C173.902 96.7458 171.678 93.6807 170.449 90.1141C169.278 86.5474 168.693 82.5906 168.693 78.2438V44.8062C168.693 38.2859 167.873 32.9359 166.234 28.7563C164.654 24.5208 161.902 21.4 157.98 19.3938C154.117 17.3875 148.79 16.3844 142 16.3844V0ZM214 96.9687V117.031H193.278V96.9687H214Z" fill="#F9E9D5"/>
<path d="M142 0H72V15.9375H93C94.4 15.9375 97.2 17.2656 97.2 21.25V77.0313L107 85L116.8 77.0313V21.25C116.8 17.2656 119.6 15.9375 121 15.9375H142V0Z" fill="#FF9575"/>
<path d="M72 198.4L72 214L142 214V198.4C142 198.4 122.381 198.402 120.981 198.4C119.582 198.398 116.813 198.496 116.821 194.596L116.841 184.196L116.781 143.8L106.985 136L97.2496 143.8L97.2496 184.163L97.2294 194.563C97.2219 198.463 94.393 198.402 92.9936 198.4C91.5942 198.398 72 198.4 72 198.4Z" fill="#FF9575"/>
</svg>
