<svg width="263" height="39" viewBox="0 0 263 39" fill="none" xmlns="http://www.w3.org/2000/svg">
<path d="M0 19.5516V17.9531C1.4935 17.9531 2.53537 17.6523 3.12561 17.0508C3.7248 16.4492 4.02439 15.4438 4.02439 14.0344V9.90938C4.02439 8.72344 4.14065 7.69648 4.37317 6.82852C4.61463 5.96055 5.00366 5.24297 5.54024 4.67578C6.07683 4.10859 6.79228 3.6875 7.68659 3.4125C8.58089 3.1375 9.68537 3 11 3V5.52656C9.9626 5.52656 9.14431 5.68125 8.54512 5.99063C7.95488 6.3 7.53455 6.78125 7.28415 7.43438C7.04268 8.07891 6.92195 8.90391 6.92195 9.90938V15.0656C6.92195 15.7359 6.82805 16.3461 6.64024 16.8961C6.46138 17.4461 6.12602 17.9188 5.63415 18.3141C5.14228 18.7094 4.44024 19.0145 3.52805 19.2293C2.6248 19.4441 1.44878 19.5516 0 19.5516ZM11 36C9.68537 36 8.58089 35.8625 7.68659 35.5875C6.79228 35.3125 6.07683 34.8914 5.54024 34.3242C5.00366 33.757 4.61463 33.0395 4.37317 32.1715C4.14065 31.3035 4.02439 30.2766 4.02439 29.0906V24.9656C4.02439 23.5563 3.7248 22.5508 3.12561 21.9492C2.53537 21.3477 1.4935 21.0469 0 21.0469V19.4484C1.44878 19.4484 2.6248 19.5559 3.52805 19.7707C4.44024 19.9855 5.14228 20.2906 5.63415 20.6859C6.12602 21.0813 6.46138 21.5539 6.64024 22.1039C6.82805 22.6539 6.92195 23.2641 6.92195 23.9344V29.0906C6.92195 30.0961 7.04268 30.9211 7.28415 31.5656C7.53455 32.2102 7.95488 32.6871 8.54512 32.9965C9.14431 33.3145 9.9626 33.4734 11 33.4734V36ZM0 21.0469V17.9531H3.16585V21.0469H0Z" fill="#F9E8D5"/>
<path d="M33 19.4484V21.0469C31.5065 21.0469 30.4602 21.3477 29.861 21.9492C29.2707 22.5508 28.9756 23.5563 28.9756 24.9656V29.0906C28.9756 30.2766 28.8549 31.3035 28.6134 32.1715C28.3809 33.0395 27.9963 33.757 27.4598 34.3242C26.9232 34.8914 26.2077 35.3125 25.3134 35.5875C24.4191 35.8625 23.3146 36 22 36V33.4734C23.0374 33.4734 23.8512 33.3145 24.4415 32.9965C25.0407 32.6871 25.461 32.2102 25.7024 31.5656C25.9528 30.9211 26.078 30.0961 26.078 29.0906V23.9344C26.078 23.2641 26.1675 22.6539 26.3463 22.1039C26.5341 21.5539 26.874 21.0813 27.3659 20.6859C27.8577 20.2906 28.5553 19.9855 29.4585 19.7707C30.3707 19.5559 31.5512 19.4484 33 19.4484ZM22 3C23.3146 3 24.4191 3.1375 25.3134 3.4125C26.2077 3.6875 26.9232 4.10859 27.4598 4.67578C27.9963 5.24297 28.3809 5.96055 28.6134 6.82852C28.8549 7.69648 28.9756 8.72344 28.9756 9.90938V14.0344C28.9756 15.4438 29.2707 16.4492 29.861 17.0508C30.4602 17.6523 31.5065 17.9531 33 17.9531V19.5516C31.5512 19.5516 30.3707 19.4441 29.4585 19.2293C28.5553 19.0145 27.8577 18.7094 27.3659 18.3141C26.874 17.9188 26.5341 17.4461 26.3463 16.8961C26.1675 16.3461 26.078 15.7359 26.078 15.0656V9.90938C26.078 8.90391 25.9528 8.07891 25.7024 7.43438C25.461 6.78125 25.0407 6.3 24.4415 5.99063C23.8512 5.68125 23.0374 5.52656 22 5.52656V3ZM33 17.9531V21.0469H29.8341V17.9531H33Z" fill="#F9E9D5"/>
<path d="M22 3H11V5.4375H14.3C14.52 5.4375 14.96 5.64063 14.96 6.25V14.7813L16.5 16L18.04 14.7813V6.25C18.04 5.64063 18.48 5.4375 18.7 5.4375H22V3Z" fill="#FF9575"/>
<path d="M11 33.6L11 36L22 36V33.6C22 33.6 18.917 33.6004 18.6971 33.6C18.4772 33.5996 18.0421 33.6147 18.0433 33.0147L18.0465 31.4147L18.037 25.2L16.4976 24L14.9678 25.2L14.9678 31.4097L14.9646 33.0097C14.9634 33.6097 14.5189 33.6004 14.299 33.6C14.0791 33.5996 11 33.6 11 33.6Z" fill="#FF9575"/>
<path d="M57.4 30H54.2V21.6H43.8V30H40.6V10.4H43.8V21.2L46.2 18.8H54.2V10.4H57.4V30ZM74.9844 21.6H72.1844V18.4H66.5844V30H63.7844V16H66.5844V18L68.5844 16H72.1844C72.9577 16 73.611 16.28 74.1444 16.84C74.7044 17.3733 74.9844 18.0267 74.9844 18.8V21.6ZM93.3703 27.2C93.3703 27.9733 93.0903 28.64 92.5303 29.2C91.997 29.7333 91.3436 30 90.5703 30H82.1703C81.397 30 80.7303 29.7333 80.1703 29.2C79.637 28.64 79.3703 27.9733 79.3703 27.2V18.8C79.3703 18.0267 79.637 17.3733 80.1703 16.84C80.7303 16.28 81.397 16 82.1703 16H90.5703C91.3436 16 91.997 16.28 92.5303 16.84C93.0903 17.3733 93.3703 18.0267 93.3703 18.8V27.2ZM90.5703 27.6V18.4H82.1703V27.6H90.5703ZM122.58 30H119.78V18.4H112.18V30H109.38V18.4H101.78V30H98.9797V16H101.78V18L103.78 16H109.38C111.006 16 111.926 16.68 112.14 18.04L114.18 16H119.78C120.553 16 121.206 16.28 121.74 16.84C122.3 17.3733 122.58 18.0267 122.58 18.8V30ZM141.598 30H138.798V27.96L136.398 30H130.398C129.625 30 128.958 29.7333 128.398 29.2C127.865 28.64 127.598 27.9733 127.598 27.2V24.4C127.598 23.6267 127.865 22.9733 128.398 22.44C128.958 21.88 129.625 21.6 130.398 21.6H138.398L135.998 23.96H130.398V27.6H138.798V18.4H127.598L129.998 16H138.798C139.572 16 140.225 16.28 140.758 16.84C141.318 17.3733 141.598 18.0267 141.598 18.8V30ZM161.183 30H158.383V18.4H149.983V30H147.183V16H149.983V18L151.983 16H158.383C159.156 16 159.809 16.28 160.343 16.84C160.903 17.3733 161.183 18.0267 161.183 18.8V30ZM188.792 16L186.352 18.4H179.592V27.6H187.992V30H179.592C178.819 30 178.152 29.7333 177.592 29.2C177.059 28.64 176.792 27.9733 176.792 27.2V18.8C176.792 18.0267 177.059 17.3733 177.592 16.84C178.152 16.28 178.819 16 179.592 16H188.792ZM205.597 27.2C205.597 27.9733 205.317 28.64 204.757 29.2C204.224 29.7333 203.57 30 202.797 30H194.397C193.624 30 192.957 29.7333 192.397 29.2C191.864 28.64 191.597 27.9733 191.597 27.2V18.8C191.597 18.0267 191.864 17.3733 192.397 16.84C192.957 16.28 193.624 16 194.397 16H202.797C203.57 16 204.224 16.28 204.757 16.84C205.317 17.3733 205.597 18.0267 205.597 18.8V27.2ZM202.797 27.6V18.4H194.397V27.6H202.797ZM225.206 30H222.406V28L220.406 30H214.006C213.233 30 212.566 29.7333 212.006 29.2C211.473 28.64 211.206 27.9733 211.206 27.2V18.8C211.206 18.0267 211.473 17.3733 212.006 16.84C212.566 16.28 213.233 16 214.006 16H222.406V9.6L225.206 6.8V30ZM222.406 27.6V16.4L220.406 18.4H214.006V27.6H222.406ZM245.206 30H234.006C233.233 30 232.566 29.7333 232.006 29.2C231.473 28.64 231.206 27.9733 231.206 27.2V18.8C231.206 18.0267 231.473 17.3733 232.006 16.84C232.566 16.28 233.233 16 234.006 16H242.406C243.18 16 243.833 16.28 244.366 16.84C244.926 17.3733 245.206 18.0267 245.206 18.8V21.6L242.406 24.4H234.406L236.806 22H242.406V18.4H234.006V27.6H245.206V30ZM261.005 16L258.565 18.4H251.805V21.6H257.405C258.178 21.6 258.831 21.88 259.365 22.44C259.925 22.9733 260.205 23.6267 260.205 24.4V27.2C260.205 27.9733 259.925 28.64 259.365 29.2C258.831 29.7333 258.178 30 257.405 30H249.005V27.6H257.405V24H251.805C251.031 24 250.365 23.7333 249.805 23.2C249.271 22.64 249.005 21.9733 249.005 21.2V18.8C249.005 18.0267 249.271 17.3733 249.805 16.84C250.365 16.28 251.031 16 251.805 16H261.005Z" fill="#F9E9D5"/>
<path d="M170.792 30H167.192V26.8H170.792V30Z" fill="#FF9575"/>
</svg>
