<svg width="88" height="88" viewBox="0 0 88 88" fill="none" xmlns="http://www.w3.org/2000/svg">
<path d="M0 44.1375V39.875C3.8865 39.875 6.59774 39.0729 8.13373 37.4687C9.69298 35.8646 10.4726 33.1833 10.4726 29.425V18.425C10.4726 15.2625 10.7752 12.524 11.3802 10.2094C12.0086 7.89479 13.0209 5.98125 14.4173 4.46875C15.8136 2.95625 17.6754 1.83334 20.0027 1.1C22.3299 0.366668 25.2041 0 28.6251 0V6.7375C25.9255 6.7375 23.7961 7.15 22.2368 7.975C20.7009 8.8 19.6071 10.0833 18.9554 11.825C18.3271 13.5437 18.0129 15.7437 18.0129 18.425V32.175C18.0129 33.9625 17.7685 35.5896 17.2798 37.0562C16.8144 38.5229 15.9416 39.7833 14.6617 40.8375C13.3817 41.8917 11.5548 42.7052 9.18099 43.2781C6.83047 43.851 3.77014 44.1375 0 44.1375ZM28.6251 88C25.2041 88 22.3299 87.6333 20.0027 86.9C17.6754 86.1666 15.8136 85.0437 14.4173 83.5312C13.0209 82.0187 12.0086 80.1052 11.3802 77.7906C10.7752 75.476 10.4726 72.7375 10.4726 69.575V58.575C10.4726 54.8167 9.69298 52.1354 8.13373 50.5312C6.59774 48.9271 3.8865 48.125 0 48.125V43.8625C3.77014 43.8625 6.83047 44.1489 9.18099 44.7219C11.5548 45.2948 13.3817 46.1083 14.6617 47.1625C15.9416 48.2167 16.8144 49.4771 17.2798 50.9437C17.7685 52.4104 18.0129 54.0375 18.0129 55.825V69.575C18.0129 72.2562 18.3271 74.4562 18.9554 76.175C19.6071 77.8937 20.7009 79.1656 22.2368 79.9906C23.7961 80.8385 25.9255 81.2625 28.6251 81.2625V88ZM0 48.125V39.875H8.23845V48.125H0Z" fill="#F9E8D5"/>
<path d="M87.551 43.8625V48.125C83.6645 48.125 80.9417 48.9271 79.3824 50.5312C77.8464 52.1354 77.0784 54.8167 77.0784 58.575V69.575C77.0784 72.7375 76.7642 75.476 76.1359 77.7906C75.5308 80.1052 74.5301 82.0187 73.1337 83.5312C71.7374 85.0437 69.8756 86.1666 67.5484 86.9C65.2211 87.6333 62.347 88 58.9259 88V81.2625C61.6255 81.2625 63.7433 80.8385 65.2793 79.9906C66.8385 79.1656 67.9323 77.8937 68.5607 76.175C69.2123 74.4562 69.5381 72.2562 69.5381 69.575V55.825C69.5381 54.0375 69.7709 52.4104 70.2363 50.9437C70.725 49.4771 71.6094 48.2167 72.8894 47.1625C74.1694 46.1083 75.9846 45.2948 78.3351 44.7219C80.7089 44.1489 83.7809 43.8625 87.551 43.8625ZM58.9259 0C62.347 0 65.2211 0.366668 67.5484 1.1C69.8756 1.83334 71.7374 2.95625 73.1337 4.46875C74.5301 5.98125 75.5308 7.89479 76.1359 10.2094C76.7642 12.524 77.0784 15.2625 77.0784 18.425V29.425C77.0784 33.1833 77.8464 35.8646 79.3824 37.4687C80.9417 39.0729 83.6645 39.875 87.551 39.875V44.1375C83.7809 44.1375 80.7089 43.851 78.3351 43.2781C75.9846 42.7052 74.1694 41.8917 72.8894 40.8375C71.6094 39.7833 70.725 38.5229 70.2363 37.0562C69.7709 35.5896 69.5381 33.9625 69.5381 32.175V18.425C69.5381 15.7437 69.2123 13.5437 68.5607 11.825C67.9323 10.0833 66.8385 8.8 65.2793 7.975C63.7433 7.15 61.6255 6.7375 58.9259 6.7375V0ZM87.551 39.875V48.125H79.3126V39.875H87.551Z" fill="#F9E9D5"/>
<path d="M57.8088 0H29.8818V6.6H38.2599C38.8185 6.6 39.9355 7.15 39.9355 8.8V31.9L43.8453 35.2L47.7551 31.9V8.8C47.7551 7.15 48.8722 6.6 49.4307 6.6H57.8088V0Z" fill="#FF9575"/>
<path d="M29.8818 81.4L29.8818 88L57.8209 88V81.4C57.8209 81.4 49.9903 81.401 49.4318 81.4C48.8732 81.399 47.7682 81.4405 47.7712 79.7905L47.7792 75.3905L47.7551 58.3L43.8453 55L39.9597 58.3L39.9597 75.3766L39.9516 79.7766C39.9486 81.4266 38.8195 81.401 38.261 81.4C37.7024 81.399 29.8818 81.4 29.8818 81.4Z" fill="#FF9575"/>
</svg>
