<svg width="294" height="241" viewBox="0 0 294 241" fill="none" xmlns="http://www.w3.org/2000/svg">
<path d="M25.5 230H21.5V219.5H8.5V230H4.5V205.5H8.5V219L11.5 216H21.5V205.5H25.5V230ZM79.7402 226.5C79.7402 227.467 79.3902 228.3 78.6902 229C78.0236 229.667 77.2069 230 76.2402 230H65.7402C64.7736 230 63.9402 229.667 63.2402 229C62.5736 228.3 62.2402 227.467 62.2402 226.5V216C62.2402 215.033 62.5736 214.217 63.2402 213.55C63.9402 212.85 64.7736 212.5 65.7402 212.5H76.2402C77.2069 212.5 78.0236 212.85 78.6902 213.55C79.3902 214.217 79.7402 215.033 79.7402 216V226.5ZM76.2402 227V215.5H65.7402V227H76.2402ZM116.252 230H112.752V215.5H103.252V230H99.752V215.5H90.252V230H86.752V212.5H90.252V215L92.752 212.5H99.752C101.785 212.5 102.935 213.35 103.202 215.05L105.752 212.5H112.752C113.719 212.5 114.535 212.85 115.202 213.55C115.902 214.217 116.252 215.033 116.252 216V230ZM140.025 230H136.525V227.45L133.525 230H126.025C125.059 230 124.225 229.667 123.525 229C122.859 228.3 122.525 227.467 122.525 226.5V223C122.525 222.033 122.859 221.217 123.525 220.55C124.225 219.85 125.059 219.5 126.025 219.5H136.025L133.025 222.45H126.025V227H136.525V215.5H122.525L125.525 212.5H136.525C137.492 212.5 138.309 212.85 138.975 213.55C139.675 214.217 140.025 215.033 140.025 216V230ZM164.506 230H161.006V215.5H150.506V230H147.006V212.5H150.506V215L153.006 212.5H161.006C161.973 212.5 162.789 212.85 163.456 213.55C164.156 214.217 164.506 215.033 164.506 216V230ZM176.518 230H172.018V226H176.518V230ZM199.018 212.5L195.968 215.5H187.518V227H198.018V230H187.518C186.551 230 185.718 229.667 185.018 229C184.351 228.3 184.018 227.467 184.018 226.5V216C184.018 215.033 184.351 214.217 185.018 213.55C185.718 212.85 186.551 212.5 187.518 212.5H199.018ZM220.023 226.5C220.023 227.467 219.673 228.3 218.973 229C218.307 229.667 217.49 230 216.523 230H206.023C205.057 230 204.223 229.667 203.523 229C202.857 228.3 202.523 227.467 202.523 226.5V216C202.523 215.033 202.857 214.217 203.523 213.55C204.223 212.85 205.057 212.5 206.023 212.5H216.523C217.49 212.5 218.307 212.85 218.973 213.55C219.673 214.217 220.023 215.033 220.023 216V226.5ZM216.523 227V215.5H206.023V227H216.523ZM244.535 230H241.035V227.5L238.535 230H230.535C229.568 230 228.735 229.667 228.035 229C227.368 228.3 227.035 227.467 227.035 226.5V216C227.035 215.033 227.368 214.217 228.035 213.55C228.735 212.85 229.568 212.5 230.535 212.5H241.035V204.5L244.535 201V230ZM241.035 227V213L238.535 215.5H230.535V227H241.035ZM269.535 230H255.535C254.568 230 253.735 229.667 253.035 229C252.368 228.3 252.035 227.467 252.035 226.5V216C252.035 215.033 252.368 214.217 253.035 213.55C253.735 212.85 254.568 212.5 255.535 212.5H266.035C267.002 212.5 267.818 212.85 268.485 213.55C269.185 214.217 269.535 215.033 269.535 216V219.5L266.035 223H256.035L259.035 220H266.035V215.5H255.535V227H269.535V230ZM289.283 212.5L286.233 215.5H277.783V219.5H284.783C285.75 219.5 286.567 219.85 287.233 220.55C287.933 221.217 288.283 222.033 288.283 223V226.5C288.283 227.467 287.933 228.3 287.233 229C286.567 229.667 285.75 230 284.783 230H274.283V227H284.783V222.5H277.783C276.817 222.5 275.983 222.167 275.283 221.5C274.617 220.8 274.283 219.967 274.283 219V216C274.283 215.033 274.617 214.217 275.283 213.55C275.983 212.85 276.817 212.5 277.783 212.5H289.283Z" fill="#F9E9D5"/>
<path d="M55.9805 230H50.8805L40.4805 219.5H51.4805V209H38.4805V230H34.4805V212.45L37.9805 209H34.4805V205.5H51.9805C52.9138 205.5 53.7305 205.85 54.4305 206.55C55.1305 207.25 55.4805 208.067 55.4805 209V218.5C55.4805 221.167 54.3138 222.5 51.9805 222.5H48.9805V223.05L55.9805 230Z" fill="#FF9575"/>
<path d="M57 92.2875V83.375C64.9904 83.375 70.5646 81.6979 73.7225 78.3437C76.9282 74.9896 78.5311 69.3833 78.5311 61.525V38.525C78.5311 31.9125 79.1531 26.1865 80.3971 21.3469C81.689 16.5073 83.7703 12.5063 86.6411 9.34376C89.512 6.18126 93.3397 3.83334 98.1244 2.30001C102.909 0.76667 108.818 0 115.852 0V14.0875C110.301 14.0875 105.923 14.95 102.718 16.675C99.5598 18.4 97.311 21.0833 95.9713 24.725C94.6794 28.3188 94.0335 32.9187 94.0335 38.525V67.275C94.0335 71.0125 93.5311 74.4146 92.5263 77.4812C91.5694 80.5479 89.7751 83.1833 87.1435 85.3875C84.512 87.5917 80.756 89.2927 75.8756 90.4906C71.0431 91.6885 64.7512 92.2875 57 92.2875ZM115.852 184C108.818 184 102.909 183.233 98.1244 181.7C93.3397 180.167 89.512 177.819 86.6411 174.656C83.7703 171.494 81.689 167.493 80.3971 162.653C79.1531 157.814 78.5311 152.087 78.5311 145.475V122.475C78.5311 114.617 76.9282 109.01 73.7225 105.656C70.5646 102.302 64.9904 100.625 57 100.625V91.7125C64.7512 91.7125 71.0431 92.3115 75.8756 93.5094C80.756 94.7073 84.512 96.4083 87.1435 98.6125C89.7751 100.817 91.5694 103.452 92.5263 106.519C93.5311 109.585 94.0335 112.987 94.0335 116.725V145.475C94.0335 151.081 94.6794 155.681 95.9713 159.275C97.311 162.869 99.5598 165.528 102.718 167.253C105.923 169.026 110.301 169.912 115.852 169.912V184ZM57 100.625V83.375H73.9378V100.625H57Z" fill="#F9E8D5"/>
<path d="M237 91.7125V100.625C229.01 100.625 223.411 102.302 220.206 105.656C217.048 109.01 215.469 114.617 215.469 122.475V145.475C215.469 152.087 214.823 157.814 213.531 162.653C212.287 167.493 210.23 171.494 207.359 174.656C204.488 177.819 200.66 180.167 195.876 181.7C191.091 183.233 185.182 184 178.148 184V169.912C183.699 169.912 188.053 169.026 191.211 167.253C194.416 165.528 196.665 162.869 197.957 159.275C199.297 155.681 199.966 151.081 199.966 145.475V116.725C199.966 112.987 200.445 109.585 201.402 106.519C202.407 103.452 204.225 100.817 206.856 98.6125C209.488 96.4083 213.22 94.7073 218.053 93.5094C222.933 92.3115 229.249 91.7125 237 91.7125ZM178.148 0C185.182 0 191.091 0.76667 195.876 2.30001C200.66 3.83334 204.488 6.18126 207.359 9.34376C210.23 12.5063 212.287 16.5073 213.531 21.3469C214.823 26.1865 215.469 31.9125 215.469 38.525V61.525C215.469 69.3833 217.048 74.9896 220.206 78.3437C223.411 81.6979 229.01 83.375 237 83.375V92.2875C229.249 92.2875 222.933 91.6885 218.053 90.4906C213.22 89.2927 209.488 87.5917 206.856 85.3875C204.225 83.1833 202.407 80.5479 201.402 77.4812C200.445 74.4146 199.966 71.0125 199.966 67.275V38.525C199.966 32.9187 199.297 28.3188 197.957 24.725C196.665 21.0833 194.416 18.4 191.211 16.675C188.053 14.95 183.699 14.0875 178.148 14.0875V0ZM237 83.375V100.625H220.062V83.375H237Z" fill="#F9E9D5"/>
<path d="M175.852 0H118.435V13.8H135.66C136.809 13.8 139.105 14.95 139.105 18.4V66.7L147.144 73.6L155.182 66.7V18.4C155.182 14.95 157.478 13.8 158.627 13.8H175.852V0Z" fill="#FF9575"/>
<path d="M118.435 170.2L118.435 184L175.876 184V170.2C175.876 170.2 159.777 170.202 158.629 170.2C157.481 170.198 155.209 170.285 155.215 166.835L155.231 157.635L155.182 121.9L147.144 115L139.155 121.9L139.155 157.606L139.138 166.806C139.132 170.256 136.811 170.202 135.662 170.2C134.514 170.198 118.435 170.2 118.435 170.2Z" fill="#FF9575"/>
</svg>
