<svg width="588" height="88" viewBox="0 0 588 88" fill="none" xmlns="http://www.w3.org/2000/svg">
<path d="M140.7 62H135.1V47.3H116.9V62H111.3V27.7H116.9V46.6L121.1 42.4H135.1V27.7H140.7V62ZM216.636 57.1C216.636 58.4533 216.146 59.62 215.166 60.6C214.233 61.5333 213.09 62 211.736 62H197.036C195.683 62 194.516 61.5333 193.536 60.6C192.603 59.62 192.136 58.4533 192.136 57.1V42.4C192.136 41.0467 192.603 39.9033 193.536 38.97C194.516 37.99 195.683 37.5 197.036 37.5H211.736C213.09 37.5 214.233 37.99 215.166 38.97C216.146 39.9033 216.636 41.0467 216.636 42.4V57.1ZM211.736 57.8V41.7H197.036V57.8H211.736ZM267.753 62H262.853V41.7H249.553V62H244.653V41.7H231.353V62H226.453V37.5H231.353V41L234.853 37.5H244.653C247.499 37.5 249.109 38.69 249.483 41.07L253.053 37.5H262.853C264.206 37.5 265.349 37.99 266.283 38.97C267.263 39.9033 267.753 41.0467 267.753 42.4V62ZM301.036 62H296.136V58.43L291.936 62H281.436C280.082 62 278.916 61.5333 277.936 60.6C277.002 59.62 276.536 58.4533 276.536 57.1V52.2C276.536 50.8467 277.002 49.7033 277.936 48.77C278.916 47.79 280.082 47.3 281.436 47.3H295.436L291.236 51.43H281.436V57.8H296.136V41.7H276.536L280.736 37.5H296.136C297.489 37.5 298.632 37.99 299.566 38.97C300.546 39.9033 301.036 41.0467 301.036 42.4V62ZM335.308 62H330.408V41.7H315.708V62H310.808V37.5H315.708V41L319.208 37.5H330.408C331.762 37.5 332.905 37.99 333.838 38.97C334.818 39.9033 335.308 41.0467 335.308 42.4V62ZM352.125 62H345.825V56.4H352.125V62ZM383.625 37.5L379.355 41.7H367.525V57.8H382.225V62H367.525C366.171 62 365.005 61.5333 364.025 60.6C363.091 59.62 362.625 58.4533 362.625 57.1V42.4C362.625 41.0467 363.091 39.9033 364.025 38.97C365.005 37.99 366.171 37.5 367.525 37.5H383.625ZM413.033 57.1C413.033 58.4533 412.543 59.62 411.563 60.6C410.629 61.5333 409.486 62 408.133 62H393.433C392.079 62 390.913 61.5333 389.933 60.6C388.999 59.62 388.533 58.4533 388.533 57.1V42.4C388.533 41.0467 388.999 39.9033 389.933 38.97C390.913 37.99 392.079 37.5 393.433 37.5H408.133C409.486 37.5 410.629 37.99 411.563 38.97C412.543 39.9033 413.033 41.0467 413.033 42.4V57.1ZM408.133 57.8V41.7H393.433V57.8H408.133ZM447.349 62H442.449V58.5L438.949 62H427.749C426.396 62 425.229 61.5333 424.249 60.6C423.316 59.62 422.849 58.4533 422.849 57.1V42.4C422.849 41.0467 423.316 39.9033 424.249 38.97C425.229 37.99 426.396 37.5 427.749 37.5H442.449V26.3L447.349 21.4V62ZM442.449 57.8V38.2L438.949 41.7H427.749V57.8H442.449ZM482.349 62H462.749C461.396 62 460.229 61.5333 459.249 60.6C458.316 59.62 457.849 58.4533 457.849 57.1V42.4C457.849 41.0467 458.316 39.9033 459.249 38.97C460.229 37.99 461.396 37.5 462.749 37.5H477.449C478.803 37.5 479.946 37.99 480.879 38.97C481.859 39.9033 482.349 41.0467 482.349 42.4V47.3L477.449 52.2H463.449L467.649 48H477.449V41.7H462.749V57.8H482.349V62ZM509.996 37.5L505.726 41.7H493.896V47.3H503.696C505.05 47.3 506.193 47.79 507.126 48.77C508.106 49.7033 508.596 50.8467 508.596 52.2V57.1C508.596 58.4533 508.106 59.62 507.126 60.6C506.193 61.5333 505.05 62 503.696 62H488.996V57.8H503.696V51.5H493.896C492.543 51.5 491.376 51.0333 490.396 50.1C489.463 49.12 488.996 47.9533 488.996 46.6V42.4C488.996 41.0467 489.463 39.9033 490.396 38.97C491.376 37.99 492.543 37.5 493.896 37.5H509.996Z" fill="#F9E9D5"/>
<path d="M183.373 62H176.233L161.673 47.3H177.073V32.6H158.873V62H153.273V37.43L158.173 32.6H153.273V27.7H177.773C179.079 27.7 180.223 28.19 181.203 29.17C182.183 30.15 182.673 31.2933 182.673 32.6V45.9C182.673 49.6333 181.039 51.5 177.773 51.5H173.573V52.27L183.373 62Z" fill="#FF9575"/>
<path d="M0 44.1375V39.875C3.90643 39.875 6.63158 39.0729 8.17544 37.4687C9.74269 35.8646 10.5263 33.1833 10.5263 29.425V18.425C10.5263 15.2625 10.8304 12.524 11.4386 10.2094C12.0702 7.89479 13.0877 5.98125 14.4912 4.46875C15.8947 2.95625 17.7661 1.83334 20.1053 1.1C22.4444 0.366668 25.3333 0 28.7719 0V6.7375C26.0585 6.7375 23.9181 7.15 22.3509 7.975C20.807 8.8 19.7076 10.0833 19.0526 11.825C18.4211 13.5437 18.1053 15.7437 18.1053 18.425V32.175C18.1053 33.9625 17.8597 35.5896 17.3684 37.0562C16.9006 38.5229 16.0234 39.7833 14.7368 40.8375C13.4503 41.8917 11.614 42.7052 9.22807 43.2781C6.8655 43.851 3.78947 44.1375 0 44.1375ZM28.7719 88C25.3333 88 22.4444 87.6333 20.1053 86.9C17.7661 86.1666 15.8947 85.0437 14.4912 83.5312C13.0877 82.0187 12.0702 80.1052 11.4386 77.7906C10.8304 75.476 10.5263 72.7375 10.5263 69.575V58.575C10.5263 54.8167 9.74269 52.1354 8.17544 50.5312C6.63158 48.9271 3.90643 48.125 0 48.125V43.8625C3.78947 43.8625 6.8655 44.1489 9.22807 44.7219C11.614 45.2948 13.4503 46.1083 14.7368 47.1625C16.0234 48.2167 16.9006 49.4771 17.3684 50.9437C17.8597 52.4104 18.1053 54.0375 18.1053 55.825V69.575C18.1053 72.2562 18.4211 74.4562 19.0526 76.175C19.7076 77.8937 20.807 79.1656 22.3509 79.9906C23.9181 80.8385 26.0585 81.2625 28.7719 81.2625V88ZM0 48.125V39.875H8.2807V48.125H0Z" fill="#F9E8D5"/>
<path d="M88 43.8625V48.125C84.0936 48.125 81.3567 48.9271 79.7895 50.5312C78.2456 52.1354 77.4737 54.8167 77.4737 58.575V69.575C77.4737 72.7375 77.1579 75.476 76.5263 77.7906C75.9181 80.1052 74.9123 82.0187 73.5088 83.5312C72.1053 85.0437 70.2339 86.1666 67.8948 86.9C65.5556 87.6333 62.6667 88 59.2281 88V81.2625C61.9415 81.2625 64.0702 80.8385 65.6141 79.9906C67.1813 79.1656 68.2807 77.8937 68.9123 76.175C69.5673 74.4562 69.8948 72.2562 69.8948 69.575V55.825C69.8948 54.0375 70.1287 52.4104 70.5965 50.9437C71.0877 49.4771 71.9766 48.2167 73.2632 47.1625C74.5497 46.1083 76.3743 45.2948 78.7369 44.7219C81.1228 44.1489 84.2105 43.8625 88 43.8625ZM59.2281 0C62.6667 0 65.5556 0.366668 67.8948 1.1C70.2339 1.83334 72.1053 2.95625 73.5088 4.46875C74.9123 5.98125 75.9181 7.89479 76.5263 10.2094C77.1579 12.524 77.4737 15.2625 77.4737 18.425V29.425C77.4737 33.1833 78.2456 35.8646 79.7895 37.4687C81.3567 39.0729 84.0936 39.875 88 39.875V44.1375C84.2105 44.1375 81.1228 43.851 78.7369 43.2781C76.3743 42.7052 74.5497 41.8917 73.2632 40.8375C71.9766 39.7833 71.0877 38.5229 70.5965 37.0562C70.1287 35.5896 69.8948 33.9625 69.8948 32.175V18.425C69.8948 15.7437 69.5673 13.5437 68.9123 11.825C68.2807 10.0833 67.1813 8.8 65.6141 7.975C64.0702 7.15 61.9415 6.7375 59.2281 6.7375V0ZM88 39.875V48.125H79.7193V39.875H88Z" fill="#F9E9D5"/>
<path d="M58.1053 0H30.0351V6.6H38.4561C39.0176 6.6 40.1404 7.15 40.1404 8.8V31.9L44.0702 35.2L48 31.9V8.8C48 7.15 49.1228 6.6 49.6842 6.6H58.1053V0Z" fill="#FF9575"/>
<path d="M30.0351 81.4L30.0351 88L58.1174 88V81.4C58.1174 81.4 50.2467 81.401 49.6853 81.4C49.1239 81.399 48.0131 81.4405 48.0162 79.7905L48.0243 75.3905L48 58.3L44.0702 55L40.1646 58.3L40.1646 75.3766L40.1565 79.7766C40.1535 81.4266 39.0186 81.401 38.4572 81.4C37.8958 81.399 30.0351 81.4 30.0351 81.4Z" fill="#FF9575"/>
</svg>
